M48
; DRILL file {KiCad (7.0.0)} date Thu Jun 22 14:20:17 2023
; FORMAT={-:-/ absolute / inch / decimal}
; #@! TF.CreationDate,2023-06-22T14:20:17+03:00
; #@! TF.GenerationSoftware,Kicad,Pcbnew,(7.0.0)
; #@! TF.FileFunction,Plated,1,4,PTH
FMAT,2
INCH
; #@! TA.AperFunction,Plated,PTH,ViaDrill
T1C0.0118
; #@! TA.AperFunction,Plated,PTH,ComponentDrill
T2C0.0354
; #@! TA.AperFunction,Plated,PTH,ComponentDrill
T3C0.0591
; #@! TA.AperFunction,Plated,PTH,ComponentDrill
T4C0.0669
%
G90
G05
T1
X5.316Y-3.964
X5.316Y-4.039
X5.401Y-3.709
X5.401Y-4.299
X5.406Y-4.206
X5.422Y-3.827
X5.476Y-4.299
X5.487Y-4.14
X5.496Y-3.809
X5.508Y-3.683
X5.541Y-4.299
X5.602Y-4.0705
X5.606Y-3.8805
X5.6074Y-4.2392
X5.6098Y-4.1999
X5.611Y-4.129
X5.6409Y-3.9598
X5.646Y-3.994
X5.651Y-4.0345
X5.6672Y-3.791
X5.6695Y-4.2605
X5.6965Y-4.1006
X5.723Y-3.872
X5.726Y-3.779
X5.742Y-3.827
X5.779Y-3.98
X5.78Y-4.025
X5.787Y-4.2549
X5.8053Y-3.7883
X5.825Y-3.98
X5.825Y-4.025
X5.856Y-4.179
X5.8739Y-3.8369
X5.8752Y-4.1429
X5.9Y-4.179
X5.9262Y-3.6183
X5.94Y-4.1715
X5.946Y-3.974
X5.954Y-3.863
X5.954Y-4.083
X5.9745Y-4.1925
X5.996Y-3.863
X5.996Y-3.973
X5.996Y-4.083
X6.074Y-3.769
X6.074Y-3.815
X6.106Y-3.959
X6.131Y-3.894
X6.161Y-4.069
X6.177Y-3.769
X6.177Y-3.815
X6.206Y-4.239
X6.206Y-4.389
X6.388Y-3.751
X6.391Y-3.707
X6.466Y-3.729
X6.551Y-3.677
X6.551Y-3.778
T3
X6.4972Y-4.0029
T4
X6.3972Y-3.9029
X6.3972Y-4.1029
X6.5972Y-3.9029
X6.5972Y-4.1029
T2
G00X5.3453Y-3.7785
M15
G01X5.2823Y-3.7785
M16
G05
G00X5.3453Y-4.2273
M15
G01X5.2823Y-4.2273
M16
G05
T0
M30
