%TF.GenerationSoftware,KiCad,Pcbnew,(7.0.0)*%
%TF.CreationDate,2023-06-22T14:20:14+03:00*%
%TF.ProjectId,Longle,4c6f6e67-6c65-42e6-9b69-6361645f7063,1.0*%
%TF.SameCoordinates,Original*%
%TF.FileFunction,Copper,L2,Inr*%
%TF.FilePolarity,Positive*%
%FSLAX46Y46*%
G04 Gerber Fmt 4.6, Leading zero omitted, Abs format (unit mm)*
G04 Created by KiCad (PCBNEW (7.0.0)) date 2023-06-22 14:20:14*
%MOMM*%
%LPD*%
G01*
G04 APERTURE LIST*
%TA.AperFunction,ComponentPad*%
%ADD10C,2.500000*%
%TD*%
%TA.AperFunction,ComponentPad*%
%ADD11O,3.500000X1.900000*%
%TD*%
%TA.AperFunction,ViaPad*%
%ADD12C,0.600000*%
%TD*%
G04 APERTURE END LIST*
D10*
%TO.N,GND*%
%TO.C,AE301*%
X167568600Y-99133600D03*
X162488600Y-99133600D03*
X167568600Y-104213600D03*
X162488600Y-104213600D03*
%TD*%
D11*
%TO.N,unconnected-(J101-Shield-Pad5)*%
%TO.C,J101*%
X134971599Y-107373599D03*
X134971599Y-95973599D03*
%TD*%
D12*
%TO.N,GND*%
X137312400Y-106832400D03*
X139090400Y-109194600D03*
X147955000Y-101092000D03*
X151231600Y-98120200D03*
X152298400Y-98120200D03*
X151231600Y-103708200D03*
X135026400Y-102590600D03*
X137185400Y-109194600D03*
X155727400Y-98907600D03*
X157632400Y-111480600D03*
X155092400Y-100558600D03*
X137185400Y-94208600D03*
X146786600Y-101092000D03*
X156895800Y-95732600D03*
X164236400Y-94716600D03*
X144005300Y-108216700D03*
X157632400Y-107670600D03*
X152298400Y-103708200D03*
X135026400Y-100685600D03*
X156489400Y-103352600D03*
X162331400Y-94157800D03*
X166395400Y-93395800D03*
X143945900Y-96291400D03*
X142519400Y-104876600D03*
X137718800Y-97205800D03*
X147955000Y-102235000D03*
X156895800Y-96901000D03*
X146812000Y-102235000D03*
X143408400Y-101447600D03*
%TO.N,VBUS*%
X139369800Y-105156000D03*
%TO.N,+5V*%
X142488571Y-106676831D03*
%TO.N,+3V3*%
X139903200Y-93548200D03*
X166395400Y-95961200D03*
X142392400Y-98564100D03*
X139598400Y-96748600D03*
X142427627Y-107676614D03*
X154279600Y-95732600D03*
X154279600Y-96901000D03*
X142290800Y-103390100D03*
X150526400Y-91904600D03*
X146989800Y-108074098D03*
X152298400Y-100914200D03*
%TO.N,/STM32F042K6/NRST*%
X140741400Y-109194600D03*
X151028400Y-100939600D03*
%TO.N,/STM32F042K6/USB_NOE*%
X145364200Y-98348800D03*
%TO.N,/STM32F042K6/LED*%
X144690347Y-104154600D03*
%TO.N,/STM32F042K6/BTN*%
X145846800Y-97205800D03*
%TO.N,/RF_LORA_RA-01/LORA_SCK*%
X148742400Y-106146600D03*
%TO.N,/RF_LORA_RA-01/LORA_MISO*%
X149860000Y-106146600D03*
%TO.N,/RF_LORA_RA-01/LORA_MOSI*%
X150876000Y-105955318D03*
%TO.N,/RF_LORA_RA-01/LORA_NCS*%
X151752300Y-106489500D03*
%TO.N,/RF_LORA_RA-01/LORA_RST*%
X149197500Y-97457700D03*
%TO.N,/RF_LORA_RA-01/LORA_DIO0*%
X147455799Y-96223999D03*
%TO.N,/USB_DN*%
X143535400Y-102476100D03*
%TO.N,/USB_DP*%
X143279569Y-100579100D03*
%TO.N,/RF_LORA_RA-01/LORA_DIO1*%
X145440400Y-95986600D03*
%TO.N,/STM32F042K6/WS2812_1*%
X149230966Y-105230818D03*
%TO.N,/STM32F042K6/WS2812_2*%
X162255200Y-95275400D03*
%TD*%
%TA.AperFunction,Conductor*%
%TO.N,GND*%
G36*
X150325450Y-91178873D02*
G01*
X150371145Y-91228305D01*
X150384278Y-91294329D01*
X150360978Y-91357486D01*
X150308112Y-91399161D01*
X150256285Y-91420627D01*
X150256277Y-91420631D01*
X150248775Y-91423739D01*
X150242333Y-91428682D01*
X150242328Y-91428685D01*
X150140221Y-91507035D01*
X150140217Y-91507038D01*
X150133779Y-91511979D01*
X150128838Y-91518417D01*
X150128835Y-91518421D01*
X150050485Y-91620528D01*
X150050482Y-91620533D01*
X150045539Y-91626975D01*
X150042429Y-91634483D01*
X150042428Y-91634485D01*
X149993182Y-91753376D01*
X149993180Y-91753381D01*
X149990070Y-91760891D01*
X149989009Y-91768948D01*
X149989008Y-91768953D01*
X149972211Y-91896541D01*
X149971150Y-91904600D01*
X149972211Y-91912659D01*
X149988645Y-92037492D01*
X149990070Y-92048309D01*
X150045539Y-92182225D01*
X150133779Y-92297221D01*
X150248775Y-92385461D01*
X150382691Y-92440930D01*
X150526400Y-92459850D01*
X150670109Y-92440930D01*
X150804025Y-92385461D01*
X150919021Y-92297221D01*
X151007261Y-92182225D01*
X151062730Y-92048309D01*
X151081650Y-91904600D01*
X151062730Y-91760891D01*
X151007261Y-91626975D01*
X150919021Y-91511979D01*
X150840544Y-91451761D01*
X150810471Y-91428685D01*
X150810469Y-91428684D01*
X150804025Y-91423739D01*
X150796519Y-91420630D01*
X150796514Y-91420627D01*
X150744688Y-91399161D01*
X150691822Y-91357486D01*
X150668522Y-91294329D01*
X150681655Y-91228305D01*
X150727350Y-91178873D01*
X150792140Y-91160600D01*
X163773737Y-91160600D01*
X166671349Y-91161099D01*
X166678245Y-91161293D01*
X166790415Y-91167592D01*
X166988725Y-91179588D01*
X167001946Y-91181107D01*
X167143680Y-91205188D01*
X167145039Y-91205428D01*
X167309726Y-91235609D01*
X167321691Y-91238421D01*
X167446307Y-91274323D01*
X167465541Y-91279864D01*
X167468072Y-91280623D01*
X167622016Y-91328594D01*
X167632563Y-91332412D01*
X167673454Y-91349350D01*
X167773109Y-91390629D01*
X167776547Y-91392114D01*
X167921344Y-91457281D01*
X167930434Y-91461829D01*
X168054661Y-91530487D01*
X168064671Y-91536019D01*
X168068840Y-91538430D01*
X168203671Y-91619938D01*
X168211276Y-91624926D01*
X168336877Y-91714045D01*
X168341595Y-91717563D01*
X168465151Y-91814363D01*
X168471305Y-91819514D01*
X168580185Y-91916815D01*
X168586377Y-91922348D01*
X168591431Y-91927127D01*
X168702271Y-92037967D01*
X168707050Y-92043021D01*
X168809884Y-92158093D01*
X168815035Y-92164247D01*
X168911835Y-92287803D01*
X168915353Y-92292521D01*
X169004472Y-92418122D01*
X169009460Y-92425727D01*
X169090968Y-92560558D01*
X169093379Y-92564727D01*
X169167569Y-92698964D01*
X169172117Y-92708054D01*
X169237284Y-92852851D01*
X169238769Y-92856289D01*
X169296983Y-92996828D01*
X169300807Y-93007391D01*
X169348765Y-93161294D01*
X169349534Y-93163857D01*
X169390976Y-93307706D01*
X169393791Y-93319681D01*
X169423951Y-93484255D01*
X169424230Y-93485835D01*
X169441648Y-93588345D01*
X169443400Y-93609117D01*
X169443400Y-109768683D01*
X169441648Y-109789455D01*
X169424230Y-109891963D01*
X169423951Y-109893543D01*
X169393791Y-110058117D01*
X169390976Y-110070092D01*
X169349534Y-110213941D01*
X169348765Y-110216504D01*
X169300807Y-110370407D01*
X169296983Y-110380970D01*
X169238769Y-110521509D01*
X169237284Y-110524947D01*
X169172117Y-110669744D01*
X169167569Y-110678834D01*
X169093379Y-110813071D01*
X169090968Y-110817240D01*
X169009460Y-110952071D01*
X169004472Y-110959676D01*
X168915353Y-111085277D01*
X168911835Y-111089995D01*
X168815035Y-111213551D01*
X168809884Y-111219705D01*
X168707050Y-111334777D01*
X168702271Y-111339831D01*
X168591431Y-111450671D01*
X168586377Y-111455450D01*
X168471305Y-111558284D01*
X168465151Y-111563435D01*
X168341595Y-111660235D01*
X168336877Y-111663753D01*
X168211276Y-111752872D01*
X168203671Y-111757860D01*
X168068840Y-111839368D01*
X168064671Y-111841779D01*
X167930434Y-111915969D01*
X167921344Y-111920517D01*
X167776547Y-111985684D01*
X167773109Y-111987169D01*
X167632570Y-112045383D01*
X167622007Y-112049207D01*
X167468104Y-112097165D01*
X167465541Y-112097934D01*
X167321692Y-112139376D01*
X167309717Y-112142191D01*
X167145131Y-112172353D01*
X167143551Y-112172632D01*
X167001980Y-112196687D01*
X166988695Y-112198213D01*
X166790698Y-112210189D01*
X166790163Y-112210220D01*
X166678290Y-112216502D01*
X166671300Y-112216697D01*
X134521860Y-112206772D01*
X134514945Y-112206577D01*
X134400821Y-112200168D01*
X134400297Y-112200137D01*
X134204752Y-112188325D01*
X134191458Y-112186799D01*
X134047559Y-112162349D01*
X134045979Y-112162070D01*
X133883752Y-112132341D01*
X133871775Y-112129526D01*
X133726424Y-112087650D01*
X133723862Y-112086881D01*
X133571480Y-112039397D01*
X133560917Y-112035573D01*
X133419233Y-111976885D01*
X133415795Y-111975400D01*
X133272155Y-111910753D01*
X133263064Y-111906204D01*
X133127909Y-111831505D01*
X133123741Y-111829095D01*
X132989855Y-111748158D01*
X132982249Y-111743170D01*
X132855840Y-111653477D01*
X132851122Y-111649958D01*
X132728361Y-111553780D01*
X132722208Y-111548629D01*
X132668073Y-111500251D01*
X132606469Y-111445197D01*
X132601430Y-111440434D01*
X132546346Y-111385349D01*
X132491265Y-111330267D01*
X132486487Y-111325214D01*
X132392199Y-111219705D01*
X132383035Y-111209450D01*
X132377888Y-111203301D01*
X132281730Y-111080563D01*
X132278211Y-111075845D01*
X132188505Y-110949415D01*
X132183531Y-110941830D01*
X132118628Y-110834466D01*
X132102590Y-110807934D01*
X132100180Y-110803766D01*
X132031133Y-110678834D01*
X132025478Y-110668601D01*
X132020932Y-110659514D01*
X131956284Y-110515869D01*
X131954799Y-110512432D01*
X131896105Y-110370729D01*
X131892303Y-110360228D01*
X131844772Y-110207692D01*
X131844054Y-110205297D01*
X131802164Y-110059888D01*
X131799351Y-110047919D01*
X131771062Y-109893543D01*
X131769614Y-109885641D01*
X131769372Y-109884268D01*
X131744890Y-109740174D01*
X131743369Y-109726930D01*
X131740147Y-109673654D01*
X131739924Y-109665471D01*
X131742761Y-109194600D01*
X140186150Y-109194600D01*
X140205070Y-109338309D01*
X140260539Y-109472225D01*
X140348779Y-109587221D01*
X140463775Y-109675461D01*
X140597691Y-109730930D01*
X140741400Y-109749850D01*
X140885109Y-109730930D01*
X141019025Y-109675461D01*
X141134021Y-109587221D01*
X141222261Y-109472225D01*
X141277730Y-109338309D01*
X141296650Y-109194600D01*
X141277730Y-109050891D01*
X141222261Y-108916975D01*
X141134021Y-108801979D01*
X141019025Y-108713739D01*
X140982992Y-108698814D01*
X140892623Y-108661382D01*
X140892620Y-108661381D01*
X140885109Y-108658270D01*
X140877049Y-108657208D01*
X140877046Y-108657208D01*
X140749459Y-108640411D01*
X140741400Y-108639350D01*
X140733341Y-108640411D01*
X140605753Y-108657208D01*
X140605748Y-108657209D01*
X140597691Y-108658270D01*
X140590181Y-108661380D01*
X140590176Y-108661382D01*
X140471285Y-108710628D01*
X140471283Y-108710629D01*
X140463775Y-108713739D01*
X140457333Y-108718682D01*
X140457328Y-108718685D01*
X140355221Y-108797035D01*
X140355217Y-108797038D01*
X140348779Y-108801979D01*
X140343838Y-108808417D01*
X140343835Y-108808421D01*
X140265485Y-108910528D01*
X140265482Y-108910533D01*
X140260539Y-108916975D01*
X140257429Y-108924483D01*
X140257428Y-108924485D01*
X140208182Y-109043376D01*
X140208180Y-109043381D01*
X140205070Y-109050891D01*
X140204009Y-109058948D01*
X140204008Y-109058953D01*
X140187211Y-109186541D01*
X140186150Y-109194600D01*
X131742761Y-109194600D01*
X131753060Y-107484843D01*
X132971100Y-107484843D01*
X132972151Y-107490469D01*
X132972152Y-107490472D01*
X132992287Y-107598183D01*
X133011982Y-107703540D01*
X133014052Y-107708885D01*
X133014053Y-107708886D01*
X133047984Y-107796473D01*
X133092353Y-107911001D01*
X133109349Y-107938451D01*
X133198327Y-108082157D01*
X133209476Y-108100162D01*
X133213336Y-108104396D01*
X133355497Y-108260340D01*
X133355501Y-108260344D01*
X133359364Y-108264581D01*
X133363937Y-108268034D01*
X133363941Y-108268038D01*
X133532338Y-108395205D01*
X133536911Y-108398658D01*
X133736072Y-108497829D01*
X133950064Y-108558715D01*
X134116097Y-108574100D01*
X135824231Y-108574100D01*
X135827103Y-108574100D01*
X135993136Y-108558715D01*
X136207128Y-108497829D01*
X136406289Y-108398658D01*
X136583836Y-108264581D01*
X136733724Y-108100162D01*
X136850847Y-107911001D01*
X136931218Y-107703540D01*
X136936251Y-107676614D01*
X141872377Y-107676614D01*
X141873438Y-107684673D01*
X141889145Y-107803983D01*
X141891297Y-107820323D01*
X141946766Y-107954239D01*
X142035006Y-108069235D01*
X142150002Y-108157475D01*
X142283918Y-108212944D01*
X142427627Y-108231864D01*
X142571336Y-108212944D01*
X142705252Y-108157475D01*
X142813910Y-108074098D01*
X146434550Y-108074098D01*
X146435611Y-108082157D01*
X146444875Y-108152528D01*
X146453470Y-108217807D01*
X146456581Y-108225318D01*
X146456582Y-108225321D01*
X146471087Y-108260340D01*
X146508939Y-108351723D01*
X146597179Y-108466719D01*
X146712175Y-108554959D01*
X146846091Y-108610428D01*
X146989800Y-108629348D01*
X147133509Y-108610428D01*
X147267425Y-108554959D01*
X147382421Y-108466719D01*
X147470661Y-108351723D01*
X147526130Y-108217807D01*
X147545050Y-108074098D01*
X147526130Y-107930389D01*
X147470661Y-107796473D01*
X147382421Y-107681477D01*
X147267425Y-107593237D01*
X147231392Y-107578312D01*
X147141023Y-107540880D01*
X147141020Y-107540879D01*
X147133509Y-107537768D01*
X147125449Y-107536706D01*
X147125446Y-107536706D01*
X146997859Y-107519909D01*
X146989800Y-107518848D01*
X146981741Y-107519909D01*
X146854153Y-107536706D01*
X146854148Y-107536707D01*
X146846091Y-107537768D01*
X146838581Y-107540878D01*
X146838576Y-107540880D01*
X146719685Y-107590126D01*
X146719683Y-107590127D01*
X146712175Y-107593237D01*
X146705733Y-107598180D01*
X146705728Y-107598183D01*
X146603621Y-107676533D01*
X146603617Y-107676536D01*
X146597179Y-107681477D01*
X146592238Y-107687915D01*
X146592235Y-107687919D01*
X146513885Y-107790026D01*
X146513882Y-107790031D01*
X146508939Y-107796473D01*
X146505829Y-107803981D01*
X146505828Y-107803983D01*
X146456582Y-107922874D01*
X146456580Y-107922879D01*
X146453470Y-107930389D01*
X146452409Y-107938446D01*
X146452408Y-107938451D01*
X146450330Y-107954239D01*
X146434550Y-108074098D01*
X142813910Y-108074098D01*
X142820248Y-108069235D01*
X142908488Y-107954239D01*
X142963957Y-107820323D01*
X142982877Y-107676614D01*
X142963957Y-107532905D01*
X142908488Y-107398989D01*
X142820248Y-107283993D01*
X142820248Y-107283992D01*
X142821003Y-107283413D01*
X142791068Y-107228849D01*
X142795608Y-107159599D01*
X142836645Y-107103634D01*
X142874744Y-107074400D01*
X142874745Y-107074398D01*
X142881192Y-107069452D01*
X142969432Y-106954456D01*
X143024901Y-106820540D01*
X143043821Y-106676831D01*
X143024901Y-106533122D01*
X142969432Y-106399206D01*
X142881192Y-106284210D01*
X142766196Y-106195970D01*
X142710982Y-106173100D01*
X142647005Y-106146600D01*
X148187150Y-106146600D01*
X148188211Y-106154659D01*
X148201016Y-106251925D01*
X148206070Y-106290309D01*
X148209181Y-106297820D01*
X148209182Y-106297823D01*
X148231620Y-106351994D01*
X148261539Y-106424225D01*
X148266484Y-106430669D01*
X148266485Y-106430671D01*
X148342233Y-106529387D01*
X148349779Y-106539221D01*
X148464775Y-106627461D01*
X148598691Y-106682930D01*
X148742400Y-106701850D01*
X148886109Y-106682930D01*
X149020025Y-106627461D01*
X149135021Y-106539221D01*
X149202823Y-106450859D01*
X149246356Y-106415133D01*
X149301200Y-106402345D01*
X149356044Y-106415133D01*
X149399576Y-106450859D01*
X149462432Y-106532775D01*
X149462435Y-106532778D01*
X149467379Y-106539221D01*
X149582375Y-106627461D01*
X149716291Y-106682930D01*
X149860000Y-106701850D01*
X150003709Y-106682930D01*
X150137625Y-106627461D01*
X150252621Y-106539221D01*
X150340861Y-106424225D01*
X150343768Y-106417206D01*
X150393716Y-106369388D01*
X150461782Y-106355847D01*
X150526464Y-106381000D01*
X150591922Y-106431229D01*
X150591930Y-106431233D01*
X150598375Y-106436179D01*
X150732291Y-106491648D01*
X150876000Y-106510568D01*
X151019709Y-106491648D01*
X151038849Y-106483719D01*
X151094407Y-106474545D01*
X151148298Y-106490891D01*
X151189402Y-106529387D01*
X151209240Y-106582093D01*
X151214561Y-106622514D01*
X151215970Y-106633209D01*
X151219081Y-106640720D01*
X151219082Y-106640723D01*
X151256514Y-106731092D01*
X151271439Y-106767125D01*
X151276384Y-106773569D01*
X151276385Y-106773571D01*
X151328541Y-106841541D01*
X151359679Y-106882121D01*
X151474675Y-106970361D01*
X151608591Y-107025830D01*
X151752300Y-107044750D01*
X151896009Y-107025830D01*
X152029925Y-106970361D01*
X152144921Y-106882121D01*
X152233161Y-106767125D01*
X152288630Y-106633209D01*
X152307550Y-106489500D01*
X152288630Y-106345791D01*
X152233161Y-106211875D01*
X152144921Y-106096879D01*
X152029925Y-106008639D01*
X151993892Y-105993714D01*
X151903523Y-105956282D01*
X151903520Y-105956281D01*
X151896009Y-105953170D01*
X151887949Y-105952108D01*
X151887946Y-105952108D01*
X151760359Y-105935311D01*
X151752300Y-105934250D01*
X151744241Y-105935311D01*
X151616653Y-105952108D01*
X151616648Y-105952109D01*
X151608591Y-105953170D01*
X151601081Y-105956280D01*
X151601076Y-105956282D01*
X151589448Y-105961099D01*
X151533886Y-105970271D01*
X151479997Y-105953923D01*
X151438895Y-105915427D01*
X151419059Y-105862722D01*
X151412330Y-105811609D01*
X151356861Y-105677693D01*
X151268621Y-105562697D01*
X151197916Y-105508443D01*
X151160071Y-105479403D01*
X151160069Y-105479402D01*
X151153625Y-105474457D01*
X151070609Y-105440071D01*
X151027223Y-105422100D01*
X151027220Y-105422099D01*
X151019709Y-105418988D01*
X151011649Y-105417926D01*
X151011646Y-105417926D01*
X150884059Y-105401129D01*
X150876000Y-105400068D01*
X150867941Y-105401129D01*
X150740353Y-105417926D01*
X150740348Y-105417927D01*
X150732291Y-105418988D01*
X150724781Y-105422098D01*
X150724776Y-105422100D01*
X150605885Y-105471346D01*
X150605883Y-105471347D01*
X150598375Y-105474457D01*
X150591933Y-105479400D01*
X150591928Y-105479403D01*
X150489821Y-105557753D01*
X150489817Y-105557756D01*
X150483379Y-105562697D01*
X150478438Y-105569135D01*
X150478435Y-105569139D01*
X150400083Y-105671248D01*
X150400078Y-105671255D01*
X150395139Y-105677693D01*
X150392231Y-105684711D01*
X150342279Y-105732531D01*
X150274214Y-105746070D01*
X150209535Y-105720917D01*
X150144077Y-105670688D01*
X150144067Y-105670682D01*
X150137625Y-105665739D01*
X150075415Y-105639971D01*
X150011223Y-105613382D01*
X150011220Y-105613381D01*
X150003709Y-105610270D01*
X149995649Y-105609208D01*
X149995646Y-105609208D01*
X149868059Y-105592411D01*
X149860000Y-105591350D01*
X149858944Y-105591488D01*
X149804172Y-105577769D01*
X149759523Y-105537302D01*
X149739222Y-105480566D01*
X149748063Y-105420960D01*
X149756277Y-105401129D01*
X149767296Y-105374527D01*
X149769277Y-105359479D01*
X161524943Y-105359479D01*
X161533047Y-105370666D01*
X161661318Y-105470503D01*
X161669876Y-105476095D01*
X161879485Y-105589529D01*
X161888839Y-105593632D01*
X162114256Y-105671017D01*
X162124168Y-105673528D01*
X162359243Y-105712755D01*
X162369439Y-105713600D01*
X162607761Y-105713600D01*
X162617956Y-105712755D01*
X162853031Y-105673528D01*
X162862943Y-105671017D01*
X163088360Y-105593632D01*
X163097714Y-105589529D01*
X163307323Y-105476095D01*
X163315881Y-105470504D01*
X163444148Y-105370668D01*
X163452253Y-105359479D01*
X166604943Y-105359479D01*
X166613047Y-105370666D01*
X166741318Y-105470503D01*
X166749876Y-105476095D01*
X166959485Y-105589529D01*
X166968839Y-105593632D01*
X167194256Y-105671017D01*
X167204168Y-105673528D01*
X167439243Y-105712755D01*
X167449439Y-105713600D01*
X167687761Y-105713600D01*
X167697956Y-105712755D01*
X167933031Y-105673528D01*
X167942943Y-105671017D01*
X168168360Y-105593632D01*
X168177714Y-105589529D01*
X168387323Y-105476095D01*
X168395881Y-105470504D01*
X168524148Y-105370668D01*
X168532254Y-105359478D01*
X168525594Y-105347371D01*
X167580142Y-104401919D01*
X167568600Y-104395255D01*
X167557057Y-104401919D01*
X166611604Y-105347371D01*
X166604943Y-105359479D01*
X163452253Y-105359479D01*
X163452254Y-105359478D01*
X163445594Y-105347371D01*
X162500142Y-104401919D01*
X162488600Y-104395255D01*
X162477057Y-104401919D01*
X161531604Y-105347371D01*
X161524943Y-105359479D01*
X149769277Y-105359479D01*
X149786216Y-105230818D01*
X149767296Y-105087109D01*
X149711827Y-104953193D01*
X149623587Y-104838197D01*
X149521350Y-104759747D01*
X149515037Y-104754903D01*
X149515035Y-104754902D01*
X149508591Y-104749957D01*
X149411763Y-104709850D01*
X149382189Y-104697600D01*
X149382186Y-104697599D01*
X149374675Y-104694488D01*
X149366615Y-104693426D01*
X149366612Y-104693426D01*
X149239025Y-104676629D01*
X149230966Y-104675568D01*
X149222907Y-104676629D01*
X149095319Y-104693426D01*
X149095314Y-104693427D01*
X149087257Y-104694488D01*
X149079747Y-104697598D01*
X149079742Y-104697600D01*
X148960851Y-104746846D01*
X148960849Y-104746847D01*
X148953341Y-104749957D01*
X148946899Y-104754900D01*
X148946894Y-104754903D01*
X148844787Y-104833253D01*
X148844783Y-104833256D01*
X148838345Y-104838197D01*
X148833404Y-104844635D01*
X148833401Y-104844639D01*
X148755051Y-104946746D01*
X148755048Y-104946751D01*
X148750105Y-104953193D01*
X148746995Y-104960701D01*
X148746994Y-104960703D01*
X148697748Y-105079594D01*
X148697746Y-105079599D01*
X148694636Y-105087109D01*
X148693575Y-105095166D01*
X148693574Y-105095171D01*
X148683556Y-105171269D01*
X148675716Y-105230818D01*
X148676777Y-105238877D01*
X148692654Y-105359479D01*
X148694636Y-105374527D01*
X148720431Y-105436803D01*
X148729605Y-105492363D01*
X148713258Y-105546252D01*
X148674764Y-105587354D01*
X148622060Y-105607193D01*
X148606751Y-105609208D01*
X148606744Y-105609209D01*
X148598691Y-105610270D01*
X148591181Y-105613380D01*
X148591176Y-105613382D01*
X148472285Y-105662628D01*
X148472283Y-105662629D01*
X148464775Y-105665739D01*
X148458333Y-105670682D01*
X148458328Y-105670685D01*
X148356221Y-105749035D01*
X148356217Y-105749038D01*
X148349779Y-105753979D01*
X148344838Y-105760417D01*
X148344835Y-105760421D01*
X148266485Y-105862528D01*
X148266482Y-105862533D01*
X148261539Y-105868975D01*
X148258429Y-105876483D01*
X148258428Y-105876485D01*
X148209182Y-105995376D01*
X148209180Y-105995381D01*
X148206070Y-106002891D01*
X148205009Y-106010948D01*
X148205008Y-106010953D01*
X148194347Y-106091935D01*
X148187150Y-106146600D01*
X142647005Y-106146600D01*
X142639794Y-106143613D01*
X142639791Y-106143612D01*
X142632280Y-106140501D01*
X142624220Y-106139439D01*
X142624217Y-106139439D01*
X142496630Y-106122642D01*
X142488571Y-106121581D01*
X142480512Y-106122642D01*
X142352924Y-106139439D01*
X142352919Y-106139440D01*
X142344862Y-106140501D01*
X142337352Y-106143611D01*
X142337347Y-106143613D01*
X142218456Y-106192859D01*
X142218454Y-106192860D01*
X142210946Y-106195970D01*
X142204504Y-106200913D01*
X142204499Y-106200916D01*
X142102392Y-106279266D01*
X142102388Y-106279269D01*
X142095950Y-106284210D01*
X142091009Y-106290648D01*
X142091006Y-106290652D01*
X142012656Y-106392759D01*
X142012653Y-106392764D01*
X142007710Y-106399206D01*
X142004600Y-106406714D01*
X142004599Y-106406716D01*
X141955353Y-106525607D01*
X141955351Y-106525612D01*
X141952241Y-106533122D01*
X141951180Y-106541179D01*
X141951179Y-106541184D01*
X141939821Y-106627461D01*
X141933321Y-106676831D01*
X141934382Y-106684890D01*
X141945208Y-106767125D01*
X141952241Y-106820540D01*
X141955352Y-106828051D01*
X141955353Y-106828054D01*
X141977748Y-106882121D01*
X142007710Y-106954456D01*
X142012655Y-106960900D01*
X142012656Y-106960902D01*
X142072056Y-107038313D01*
X142092180Y-107064540D01*
X142092182Y-107064542D01*
X142095950Y-107069452D01*
X142095194Y-107070031D01*
X142125129Y-107124594D01*
X142120590Y-107193843D01*
X142079555Y-107249808D01*
X142041453Y-107279044D01*
X142041444Y-107279052D01*
X142035006Y-107283993D01*
X142030065Y-107290431D01*
X142030062Y-107290435D01*
X141951712Y-107392542D01*
X141951709Y-107392547D01*
X141946766Y-107398989D01*
X141943656Y-107406497D01*
X141943655Y-107406499D01*
X141894409Y-107525390D01*
X141894407Y-107525395D01*
X141891297Y-107532905D01*
X141890236Y-107540962D01*
X141890235Y-107540967D01*
X141873438Y-107668555D01*
X141872377Y-107676614D01*
X136936251Y-107676614D01*
X136972100Y-107484843D01*
X136972100Y-107262357D01*
X136931218Y-107043660D01*
X136850847Y-106836199D01*
X136733724Y-106647038D01*
X136639942Y-106544164D01*
X136587702Y-106486859D01*
X136587697Y-106486855D01*
X136583836Y-106482619D01*
X136579263Y-106479166D01*
X136579258Y-106479161D01*
X136410861Y-106351994D01*
X136410856Y-106351991D01*
X136406289Y-106348542D01*
X136401163Y-106345989D01*
X136401159Y-106345987D01*
X136212258Y-106251925D01*
X136212253Y-106251923D01*
X136207128Y-106249371D01*
X136201621Y-106247804D01*
X136201613Y-106247801D01*
X135998650Y-106190054D01*
X135998651Y-106190054D01*
X135993136Y-106188485D01*
X135987428Y-106187956D01*
X135829963Y-106173365D01*
X135829962Y-106173364D01*
X135827103Y-106173100D01*
X134116097Y-106173100D01*
X134113238Y-106173364D01*
X134113236Y-106173365D01*
X133955771Y-106187956D01*
X133955769Y-106187956D01*
X133950064Y-106188485D01*
X133944550Y-106190053D01*
X133944549Y-106190054D01*
X133741586Y-106247801D01*
X133741575Y-106247805D01*
X133736072Y-106249371D01*
X133730949Y-106251921D01*
X133730941Y-106251925D01*
X133542040Y-106345987D01*
X133542031Y-106345992D01*
X133536911Y-106348542D01*
X133532348Y-106351987D01*
X133532338Y-106351994D01*
X133363941Y-106479161D01*
X133363930Y-106479170D01*
X133359364Y-106482619D01*
X133355507Y-106486849D01*
X133355497Y-106486859D01*
X133213336Y-106642803D01*
X133213332Y-106642807D01*
X133209476Y-106647038D01*
X133206464Y-106651901D01*
X133206459Y-106651909D01*
X133097396Y-106828054D01*
X133092353Y-106836199D01*
X133090285Y-106841536D01*
X133090283Y-106841541D01*
X133040378Y-106970361D01*
X133011982Y-107043660D01*
X133010928Y-107049294D01*
X133010928Y-107049297D01*
X132973446Y-107249808D01*
X132971100Y-107262357D01*
X132971100Y-107484843D01*
X131753060Y-107484843D01*
X131767089Y-105156000D01*
X138814550Y-105156000D01*
X138833470Y-105299709D01*
X138888939Y-105433625D01*
X138893884Y-105440069D01*
X138893885Y-105440071D01*
X138972235Y-105542178D01*
X138977179Y-105548621D01*
X139092175Y-105636861D01*
X139226091Y-105692330D01*
X139369800Y-105711250D01*
X139513509Y-105692330D01*
X139647425Y-105636861D01*
X139762421Y-105548621D01*
X139850661Y-105433625D01*
X139906130Y-105299709D01*
X139925050Y-105156000D01*
X139906130Y-105012291D01*
X139850661Y-104878375D01*
X139762421Y-104763379D01*
X139692661Y-104709850D01*
X139653871Y-104680085D01*
X139653869Y-104680084D01*
X139647425Y-104675139D01*
X139559141Y-104638571D01*
X139521023Y-104622782D01*
X139521020Y-104622781D01*
X139513509Y-104619670D01*
X139505449Y-104618608D01*
X139505446Y-104618608D01*
X139377859Y-104601811D01*
X139369800Y-104600750D01*
X139361741Y-104601811D01*
X139234153Y-104618608D01*
X139234148Y-104618609D01*
X139226091Y-104619670D01*
X139218581Y-104622780D01*
X139218576Y-104622782D01*
X139099685Y-104672028D01*
X139099683Y-104672029D01*
X139092175Y-104675139D01*
X139085733Y-104680082D01*
X139085728Y-104680085D01*
X138983621Y-104758435D01*
X138983617Y-104758438D01*
X138977179Y-104763379D01*
X138972238Y-104769817D01*
X138972235Y-104769821D01*
X138893885Y-104871928D01*
X138893882Y-104871933D01*
X138888939Y-104878375D01*
X138885829Y-104885883D01*
X138885828Y-104885885D01*
X138836582Y-105004776D01*
X138836580Y-105004781D01*
X138833470Y-105012291D01*
X138832409Y-105020348D01*
X138832408Y-105020353D01*
X138824609Y-105079594D01*
X138814550Y-105156000D01*
X131767089Y-105156000D01*
X131774212Y-103973600D01*
X134166035Y-103973600D01*
X134186232Y-104152855D01*
X134188528Y-104159419D01*
X134188530Y-104159424D01*
X134243513Y-104316556D01*
X134245811Y-104323122D01*
X134249512Y-104329012D01*
X134309645Y-104424714D01*
X134341784Y-104475862D01*
X134469338Y-104603416D01*
X134622078Y-104699389D01*
X134792345Y-104758968D01*
X134926646Y-104774100D01*
X135013070Y-104774100D01*
X135016554Y-104774100D01*
X135150855Y-104758968D01*
X135321122Y-104699389D01*
X135473862Y-104603416D01*
X135601416Y-104475862D01*
X135697389Y-104323122D01*
X135756357Y-104154600D01*
X144135097Y-104154600D01*
X144136158Y-104162659D01*
X144142864Y-104213600D01*
X144154017Y-104298309D01*
X144157128Y-104305820D01*
X144157129Y-104305823D01*
X144166734Y-104329012D01*
X144209486Y-104432225D01*
X144214431Y-104438669D01*
X144214432Y-104438671D01*
X144235642Y-104466312D01*
X144297726Y-104547221D01*
X144412722Y-104635461D01*
X144546638Y-104690930D01*
X144690347Y-104709850D01*
X144834056Y-104690930D01*
X144967972Y-104635461D01*
X145082968Y-104547221D01*
X145171208Y-104432225D01*
X145226677Y-104298309D01*
X145237156Y-104218717D01*
X160983883Y-104218717D01*
X161003562Y-104456218D01*
X161005246Y-104466312D01*
X161063753Y-104697347D01*
X161067072Y-104707014D01*
X161162807Y-104925271D01*
X161167672Y-104934261D01*
X161298025Y-105133780D01*
X161304306Y-105141851D01*
X161330949Y-105170792D01*
X161342406Y-105177944D01*
X161354151Y-105171270D01*
X162300280Y-104225142D01*
X162306944Y-104213600D01*
X162670255Y-104213600D01*
X162676919Y-104225142D01*
X163623046Y-105171269D01*
X163634793Y-105177943D01*
X163646249Y-105170792D01*
X163672894Y-105141850D01*
X163679173Y-105133782D01*
X163809527Y-104934261D01*
X163814392Y-104925271D01*
X163910127Y-104707014D01*
X163913446Y-104697347D01*
X163971953Y-104466312D01*
X163973637Y-104456218D01*
X163993317Y-104218717D01*
X166063883Y-104218717D01*
X166083562Y-104456218D01*
X166085246Y-104466312D01*
X166143753Y-104697347D01*
X166147072Y-104707014D01*
X166242807Y-104925271D01*
X166247672Y-104934261D01*
X166378025Y-105133780D01*
X166384306Y-105141851D01*
X166410949Y-105170792D01*
X166422406Y-105177944D01*
X166434151Y-105171270D01*
X167380280Y-104225142D01*
X167386944Y-104213600D01*
X167750255Y-104213600D01*
X167756919Y-104225142D01*
X168703046Y-105171269D01*
X168714793Y-105177943D01*
X168726249Y-105170792D01*
X168752894Y-105141850D01*
X168759173Y-105133782D01*
X168889527Y-104934261D01*
X168894392Y-104925271D01*
X168990127Y-104707014D01*
X168993446Y-104697347D01*
X169051953Y-104466312D01*
X169053637Y-104456218D01*
X169073317Y-104218717D01*
X169073317Y-104208483D01*
X169053637Y-103970981D01*
X169051953Y-103960887D01*
X168993446Y-103729852D01*
X168990127Y-103720185D01*
X168894392Y-103501928D01*
X168889527Y-103492938D01*
X168759174Y-103293419D01*
X168752893Y-103285348D01*
X168726250Y-103256408D01*
X168714792Y-103249255D01*
X168703046Y-103255929D01*
X167756919Y-104202057D01*
X167750255Y-104213600D01*
X167386944Y-104213600D01*
X167380280Y-104202057D01*
X166434151Y-103255928D01*
X166422407Y-103249255D01*
X166410948Y-103256408D01*
X166384307Y-103285347D01*
X166378024Y-103293420D01*
X166247672Y-103492938D01*
X166242807Y-103501928D01*
X166147072Y-103720185D01*
X166143753Y-103729852D01*
X166085246Y-103960887D01*
X166083562Y-103970981D01*
X166063883Y-104208483D01*
X166063883Y-104218717D01*
X163993317Y-104218717D01*
X163993317Y-104208483D01*
X163973637Y-103970981D01*
X163971953Y-103960887D01*
X163913446Y-103729852D01*
X163910127Y-103720185D01*
X163814392Y-103501928D01*
X163809527Y-103492938D01*
X163679174Y-103293419D01*
X163672893Y-103285348D01*
X163646250Y-103256408D01*
X163634792Y-103249255D01*
X163623046Y-103255929D01*
X162676919Y-104202057D01*
X162670255Y-104213600D01*
X162306944Y-104213600D01*
X162300280Y-104202057D01*
X161354151Y-103255928D01*
X161342407Y-103249255D01*
X161330948Y-103256408D01*
X161304307Y-103285347D01*
X161298024Y-103293420D01*
X161167672Y-103492938D01*
X161162807Y-103501928D01*
X161067072Y-103720185D01*
X161063753Y-103729852D01*
X161005246Y-103960887D01*
X161003562Y-103970981D01*
X160983883Y-104208483D01*
X160983883Y-104218717D01*
X145237156Y-104218717D01*
X145245597Y-104154600D01*
X145226677Y-104010891D01*
X145171208Y-103876975D01*
X145082968Y-103761979D01*
X145076525Y-103757035D01*
X144974418Y-103678685D01*
X144974416Y-103678684D01*
X144967972Y-103673739D01*
X144863928Y-103630643D01*
X144841570Y-103621382D01*
X144841567Y-103621381D01*
X144834056Y-103618270D01*
X144825996Y-103617208D01*
X144825993Y-103617208D01*
X144698406Y-103600411D01*
X144690347Y-103599350D01*
X144682288Y-103600411D01*
X144554700Y-103617208D01*
X144554695Y-103617209D01*
X144546638Y-103618270D01*
X144539128Y-103621380D01*
X144539123Y-103621382D01*
X144420232Y-103670628D01*
X144420230Y-103670629D01*
X144412722Y-103673739D01*
X144406280Y-103678682D01*
X144406275Y-103678685D01*
X144304168Y-103757035D01*
X144304164Y-103757038D01*
X144297726Y-103761979D01*
X144292785Y-103768417D01*
X144292782Y-103768421D01*
X144214432Y-103870528D01*
X144214429Y-103870533D01*
X144209486Y-103876975D01*
X144206376Y-103884483D01*
X144206375Y-103884485D01*
X144157129Y-104003376D01*
X144157127Y-104003381D01*
X144154017Y-104010891D01*
X144152956Y-104018948D01*
X144152955Y-104018953D01*
X144151245Y-104031944D01*
X144135097Y-104154600D01*
X135756357Y-104154600D01*
X135756968Y-104152855D01*
X135777165Y-103973600D01*
X135756968Y-103794345D01*
X135697389Y-103624078D01*
X135601416Y-103471338D01*
X135520178Y-103390100D01*
X141735550Y-103390100D01*
X141736611Y-103398159D01*
X141750272Y-103501928D01*
X141754470Y-103533809D01*
X141757581Y-103541320D01*
X141757582Y-103541323D01*
X141782057Y-103600411D01*
X141809939Y-103667725D01*
X141898179Y-103782721D01*
X142013175Y-103870961D01*
X142147091Y-103926430D01*
X142290800Y-103945350D01*
X142434509Y-103926430D01*
X142568425Y-103870961D01*
X142683421Y-103782721D01*
X142771661Y-103667725D01*
X142827130Y-103533809D01*
X142846050Y-103390100D01*
X142827130Y-103246391D01*
X142771661Y-103112475D01*
X142737320Y-103067721D01*
X161524944Y-103067721D01*
X161531603Y-103079826D01*
X162477057Y-104025280D01*
X162488600Y-104031944D01*
X162500142Y-104025280D01*
X163445595Y-103079826D01*
X163452254Y-103067721D01*
X166604944Y-103067721D01*
X166611603Y-103079826D01*
X167557057Y-104025280D01*
X167568600Y-104031944D01*
X167580142Y-104025280D01*
X168525595Y-103079826D01*
X168532255Y-103067720D01*
X168524148Y-103056530D01*
X168395884Y-102956698D01*
X168387322Y-102951104D01*
X168177714Y-102837670D01*
X168168360Y-102833567D01*
X167942943Y-102756182D01*
X167933031Y-102753671D01*
X167697956Y-102714444D01*
X167687761Y-102713600D01*
X167449439Y-102713600D01*
X167439243Y-102714444D01*
X167204168Y-102753671D01*
X167194256Y-102756182D01*
X166968839Y-102833567D01*
X166959485Y-102837670D01*
X166749879Y-102951103D01*
X166741317Y-102956696D01*
X166613051Y-103056530D01*
X166604944Y-103067721D01*
X163452254Y-103067721D01*
X163452255Y-103067720D01*
X163444148Y-103056530D01*
X163315884Y-102956698D01*
X163307322Y-102951104D01*
X163097714Y-102837670D01*
X163088360Y-102833567D01*
X162862943Y-102756182D01*
X162853031Y-102753671D01*
X162617956Y-102714444D01*
X162607761Y-102713600D01*
X162369439Y-102713600D01*
X162359243Y-102714444D01*
X162124168Y-102753671D01*
X162114256Y-102756182D01*
X161888839Y-102833567D01*
X161879485Y-102837670D01*
X161669879Y-102951103D01*
X161661317Y-102956696D01*
X161533051Y-103056530D01*
X161524944Y-103067721D01*
X142737320Y-103067721D01*
X142683421Y-102997479D01*
X142630617Y-102956961D01*
X142574871Y-102914185D01*
X142574869Y-102914184D01*
X142568425Y-102909239D01*
X142532392Y-102894314D01*
X142442023Y-102856882D01*
X142442020Y-102856881D01*
X142434509Y-102853770D01*
X142426449Y-102852708D01*
X142426446Y-102852708D01*
X142298859Y-102835911D01*
X142290800Y-102834850D01*
X142282741Y-102835911D01*
X142155153Y-102852708D01*
X142155148Y-102852709D01*
X142147091Y-102853770D01*
X142139581Y-102856880D01*
X142139576Y-102856882D01*
X142020685Y-102906128D01*
X142020683Y-102906129D01*
X142013175Y-102909239D01*
X142006733Y-102914182D01*
X142006728Y-102914185D01*
X141904621Y-102992535D01*
X141904617Y-102992538D01*
X141898179Y-102997479D01*
X141893238Y-103003917D01*
X141893235Y-103003921D01*
X141814885Y-103106028D01*
X141814882Y-103106033D01*
X141809939Y-103112475D01*
X141806829Y-103119983D01*
X141806828Y-103119985D01*
X141757582Y-103238876D01*
X141757580Y-103238881D01*
X141754470Y-103246391D01*
X141753409Y-103254448D01*
X141753408Y-103254453D01*
X141748278Y-103293420D01*
X141735550Y-103390100D01*
X135520178Y-103390100D01*
X135473862Y-103343784D01*
X135321122Y-103247811D01*
X135314559Y-103245514D01*
X135314556Y-103245513D01*
X135157425Y-103190531D01*
X135150855Y-103188232D01*
X135143933Y-103187452D01*
X135020018Y-103173490D01*
X135020012Y-103173489D01*
X135016554Y-103173100D01*
X134926646Y-103173100D01*
X134923188Y-103173489D01*
X134923181Y-103173490D01*
X134799266Y-103187452D01*
X134799264Y-103187452D01*
X134792345Y-103188232D01*
X134785776Y-103190530D01*
X134785774Y-103190531D01*
X134628643Y-103245513D01*
X134628636Y-103245515D01*
X134622078Y-103247811D01*
X134616190Y-103251510D01*
X134616187Y-103251512D01*
X134475238Y-103340076D01*
X134475233Y-103340079D01*
X134469338Y-103343784D01*
X134464413Y-103348708D01*
X134464409Y-103348712D01*
X134346712Y-103466409D01*
X134346708Y-103466413D01*
X134341784Y-103471338D01*
X134338079Y-103477233D01*
X134338076Y-103477238D01*
X134249512Y-103618187D01*
X134249510Y-103618190D01*
X134245811Y-103624078D01*
X134243515Y-103630636D01*
X134243513Y-103630643D01*
X134188530Y-103787775D01*
X134188528Y-103787782D01*
X134186232Y-103794345D01*
X134185452Y-103801262D01*
X134185452Y-103801265D01*
X134169218Y-103945350D01*
X134166035Y-103973600D01*
X131774212Y-103973600D01*
X131783233Y-102476100D01*
X142980150Y-102476100D01*
X142981211Y-102484159D01*
X142996414Y-102599642D01*
X142999070Y-102619809D01*
X143002181Y-102627320D01*
X143002182Y-102627323D01*
X143014388Y-102656791D01*
X143054539Y-102753725D01*
X143059484Y-102760169D01*
X143059485Y-102760171D01*
X143137835Y-102862278D01*
X143142779Y-102868721D01*
X143257775Y-102956961D01*
X143391691Y-103012430D01*
X143535400Y-103031350D01*
X143679109Y-103012430D01*
X143813025Y-102956961D01*
X143928021Y-102868721D01*
X144016261Y-102753725D01*
X144071730Y-102619809D01*
X144090650Y-102476100D01*
X144071730Y-102332391D01*
X144016261Y-102198475D01*
X143928021Y-102083479D01*
X143813025Y-101995239D01*
X143776992Y-101980314D01*
X143686623Y-101942882D01*
X143686620Y-101942881D01*
X143679109Y-101939770D01*
X143671049Y-101938708D01*
X143671046Y-101938708D01*
X143543459Y-101921911D01*
X143535400Y-101920850D01*
X143527341Y-101921911D01*
X143399753Y-101938708D01*
X143399748Y-101938709D01*
X143391691Y-101939770D01*
X143384181Y-101942880D01*
X143384176Y-101942882D01*
X143265285Y-101992128D01*
X143265283Y-101992129D01*
X143257775Y-101995239D01*
X143251333Y-102000182D01*
X143251328Y-102000185D01*
X143149221Y-102078535D01*
X143149217Y-102078538D01*
X143142779Y-102083479D01*
X143137838Y-102089917D01*
X143137835Y-102089921D01*
X143059485Y-102192028D01*
X143059482Y-102192033D01*
X143054539Y-102198475D01*
X143051429Y-102205983D01*
X143051428Y-102205985D01*
X143002182Y-102324876D01*
X143002180Y-102324881D01*
X142999070Y-102332391D01*
X142998009Y-102340448D01*
X142998008Y-102340453D01*
X142994045Y-102370559D01*
X142980150Y-102476100D01*
X131783233Y-102476100D01*
X131787761Y-101724536D01*
X164024231Y-101724536D01*
X164025182Y-101730748D01*
X164025183Y-101730754D01*
X164054091Y-101919456D01*
X164054093Y-101919464D01*
X164055044Y-101925671D01*
X164057225Y-101931561D01*
X164057227Y-101931567D01*
X164123528Y-102110586D01*
X164123530Y-102110590D01*
X164125714Y-102116487D01*
X164129040Y-102121823D01*
X164129042Y-102121827D01*
X164172798Y-102192028D01*
X164233348Y-102289171D01*
X164373541Y-102436653D01*
X164540551Y-102552895D01*
X164727542Y-102633140D01*
X164926859Y-102674100D01*
X165076200Y-102674100D01*
X165079342Y-102674100D01*
X165231038Y-102658674D01*
X165425188Y-102597759D01*
X165603102Y-102499009D01*
X165757495Y-102366466D01*
X165882048Y-102205558D01*
X165971660Y-102022871D01*
X166022663Y-101825885D01*
X166032969Y-101622664D01*
X166002156Y-101421529D01*
X165931486Y-101230713D01*
X165907247Y-101191825D01*
X165827178Y-101063365D01*
X165827177Y-101063364D01*
X165823852Y-101058029D01*
X165711276Y-100939600D01*
X165687990Y-100915103D01*
X165687989Y-100915102D01*
X165683659Y-100910547D01*
X165516649Y-100794305D01*
X165479943Y-100778553D01*
X165335436Y-100716539D01*
X165335431Y-100716537D01*
X165329658Y-100714060D01*
X165292190Y-100706360D01*
X165136499Y-100674365D01*
X165136494Y-100674364D01*
X165130341Y-100673100D01*
X164977858Y-100673100D01*
X164974747Y-100673416D01*
X164974734Y-100673417D01*
X164832414Y-100687890D01*
X164832411Y-100687890D01*
X164826162Y-100688526D01*
X164820164Y-100690407D01*
X164820163Y-100690408D01*
X164638015Y-100747557D01*
X164638010Y-100747559D01*
X164632012Y-100749441D01*
X164626516Y-100752491D01*
X164626510Y-100752494D01*
X164459597Y-100845138D01*
X164459591Y-100845142D01*
X164454098Y-100848191D01*
X164449333Y-100852280D01*
X164449328Y-100852285D01*
X164304473Y-100976640D01*
X164304468Y-100976644D01*
X164299705Y-100980734D01*
X164295862Y-100985698D01*
X164295855Y-100985706D01*
X164180796Y-101134350D01*
X164175152Y-101141642D01*
X164172384Y-101147283D01*
X164172380Y-101147291D01*
X164088308Y-101318684D01*
X164088304Y-101318692D01*
X164085540Y-101324329D01*
X164083965Y-101330409D01*
X164083964Y-101330414D01*
X164041389Y-101494850D01*
X164034537Y-101521315D01*
X164034219Y-101527582D01*
X164034218Y-101527590D01*
X164024549Y-101718254D01*
X164024549Y-101718259D01*
X164024231Y-101724536D01*
X131787761Y-101724536D01*
X131794661Y-100579100D01*
X142724319Y-100579100D01*
X142725380Y-100587159D01*
X142738641Y-100687890D01*
X142743239Y-100722809D01*
X142746350Y-100730320D01*
X142746351Y-100730323D01*
X142770397Y-100788376D01*
X142798708Y-100856725D01*
X142803653Y-100863169D01*
X142803654Y-100863171D01*
X142868484Y-100947659D01*
X142886948Y-100971721D01*
X143001944Y-101059961D01*
X143135860Y-101115430D01*
X143279569Y-101134350D01*
X143423278Y-101115430D01*
X143557194Y-101059961D01*
X143672190Y-100971721D01*
X143696837Y-100939600D01*
X150473150Y-100939600D01*
X150474211Y-100947659D01*
X150489405Y-101063071D01*
X150492070Y-101083309D01*
X150495181Y-101090820D01*
X150495182Y-101090823D01*
X150514170Y-101136664D01*
X150547539Y-101217225D01*
X150635779Y-101332221D01*
X150750775Y-101420461D01*
X150884691Y-101475930D01*
X151028400Y-101494850D01*
X151172109Y-101475930D01*
X151306025Y-101420461D01*
X151421021Y-101332221D01*
X151509261Y-101217225D01*
X151554101Y-101108969D01*
X151588128Y-101062135D01*
X151639712Y-101035851D01*
X151697607Y-101035851D01*
X151749192Y-101062135D01*
X151783221Y-101108973D01*
X151784606Y-101112317D01*
X151817539Y-101191825D01*
X151822484Y-101198269D01*
X151822485Y-101198271D01*
X151847379Y-101230713D01*
X151905779Y-101306821D01*
X152020775Y-101395061D01*
X152154691Y-101450530D01*
X152298400Y-101469450D01*
X152442109Y-101450530D01*
X152576025Y-101395061D01*
X152691021Y-101306821D01*
X152779261Y-101191825D01*
X152834730Y-101057909D01*
X152853650Y-100914200D01*
X152834730Y-100770491D01*
X152779261Y-100636575D01*
X152691021Y-100521579D01*
X152675317Y-100509529D01*
X152582471Y-100438285D01*
X152582469Y-100438284D01*
X152576025Y-100433339D01*
X152472611Y-100390504D01*
X152449623Y-100380982D01*
X152449620Y-100380981D01*
X152442109Y-100377870D01*
X152434049Y-100376808D01*
X152434046Y-100376808D01*
X152306459Y-100360011D01*
X152298400Y-100358950D01*
X152290341Y-100360011D01*
X152162753Y-100376808D01*
X152162748Y-100376809D01*
X152154691Y-100377870D01*
X152147181Y-100380980D01*
X152147176Y-100380982D01*
X152028285Y-100430228D01*
X152028283Y-100430229D01*
X152020775Y-100433339D01*
X152014333Y-100438282D01*
X152014328Y-100438285D01*
X151912221Y-100516635D01*
X151912217Y-100516638D01*
X151905779Y-100521579D01*
X151900838Y-100528017D01*
X151900835Y-100528021D01*
X151822485Y-100630128D01*
X151822482Y-100630133D01*
X151817539Y-100636575D01*
X151814429Y-100644082D01*
X151814429Y-100644083D01*
X151772700Y-100744827D01*
X151738670Y-100791664D01*
X151687086Y-100817948D01*
X151629191Y-100817948D01*
X151577607Y-100791664D01*
X151543580Y-100744830D01*
X151509261Y-100661975D01*
X151421021Y-100546979D01*
X151377563Y-100513632D01*
X151312471Y-100463685D01*
X151312469Y-100463684D01*
X151306025Y-100458739D01*
X151244703Y-100433339D01*
X151179623Y-100406382D01*
X151179620Y-100406381D01*
X151172109Y-100403270D01*
X151164049Y-100402208D01*
X151164046Y-100402208D01*
X151036459Y-100385411D01*
X151028400Y-100384350D01*
X151020341Y-100385411D01*
X150892753Y-100402208D01*
X150892748Y-100402209D01*
X150884691Y-100403270D01*
X150877181Y-100406380D01*
X150877176Y-100406382D01*
X150758285Y-100455628D01*
X150758283Y-100455629D01*
X150750775Y-100458739D01*
X150744333Y-100463682D01*
X150744328Y-100463685D01*
X150642221Y-100542035D01*
X150642217Y-100542038D01*
X150635779Y-100546979D01*
X150630838Y-100553417D01*
X150630835Y-100553421D01*
X150552485Y-100655528D01*
X150552482Y-100655533D01*
X150547539Y-100661975D01*
X150544431Y-100669479D01*
X150544428Y-100669485D01*
X150495182Y-100788376D01*
X150495180Y-100788381D01*
X150492070Y-100795891D01*
X150491009Y-100803948D01*
X150491008Y-100803953D01*
X150484645Y-100852285D01*
X150473150Y-100939600D01*
X143696837Y-100939600D01*
X143760430Y-100856725D01*
X143815899Y-100722809D01*
X143834819Y-100579100D01*
X143815899Y-100435391D01*
X143760430Y-100301475D01*
X143743552Y-100279479D01*
X161524943Y-100279479D01*
X161533047Y-100290666D01*
X161661318Y-100390503D01*
X161669876Y-100396095D01*
X161879485Y-100509529D01*
X161888839Y-100513632D01*
X162114256Y-100591017D01*
X162124168Y-100593528D01*
X162359243Y-100632755D01*
X162369439Y-100633600D01*
X162607761Y-100633600D01*
X162617956Y-100632755D01*
X162853031Y-100593528D01*
X162862943Y-100591017D01*
X163088360Y-100513632D01*
X163097714Y-100509529D01*
X163307323Y-100396095D01*
X163315881Y-100390504D01*
X163444148Y-100290668D01*
X163452253Y-100279479D01*
X166604943Y-100279479D01*
X166613047Y-100290666D01*
X166741318Y-100390503D01*
X166749876Y-100396095D01*
X166959485Y-100509529D01*
X166968839Y-100513632D01*
X167194256Y-100591017D01*
X167204168Y-100593528D01*
X167439243Y-100632755D01*
X167449439Y-100633600D01*
X167687761Y-100633600D01*
X167697956Y-100632755D01*
X167933031Y-100593528D01*
X167942943Y-100591017D01*
X168168360Y-100513632D01*
X168177714Y-100509529D01*
X168387323Y-100396095D01*
X168395881Y-100390504D01*
X168524148Y-100290668D01*
X168532254Y-100279478D01*
X168525594Y-100267371D01*
X167580142Y-99321919D01*
X167568599Y-99315255D01*
X167557057Y-99321919D01*
X166611604Y-100267371D01*
X166604943Y-100279479D01*
X163452253Y-100279479D01*
X163452254Y-100279478D01*
X163445594Y-100267371D01*
X162500142Y-99321919D01*
X162488599Y-99315255D01*
X162477057Y-99321919D01*
X161531604Y-100267371D01*
X161524943Y-100279479D01*
X143743552Y-100279479D01*
X143672190Y-100186479D01*
X143665747Y-100181535D01*
X143563640Y-100103185D01*
X143563638Y-100103184D01*
X143557194Y-100098239D01*
X143521161Y-100083314D01*
X143430792Y-100045882D01*
X143430789Y-100045881D01*
X143423278Y-100042770D01*
X143415218Y-100041708D01*
X143415215Y-100041708D01*
X143287628Y-100024911D01*
X143279569Y-100023850D01*
X143271510Y-100024911D01*
X143143922Y-100041708D01*
X143143917Y-100041709D01*
X143135860Y-100042770D01*
X143128350Y-100045880D01*
X143128345Y-100045882D01*
X143009454Y-100095128D01*
X143009452Y-100095129D01*
X143001944Y-100098239D01*
X142995502Y-100103182D01*
X142995497Y-100103185D01*
X142893390Y-100181535D01*
X142893386Y-100181538D01*
X142886948Y-100186479D01*
X142882007Y-100192917D01*
X142882004Y-100192921D01*
X142803654Y-100295028D01*
X142803651Y-100295033D01*
X142798708Y-100301475D01*
X142795598Y-100308983D01*
X142795597Y-100308985D01*
X142746351Y-100427876D01*
X142746349Y-100427881D01*
X142743239Y-100435391D01*
X142742178Y-100443448D01*
X142742177Y-100443453D01*
X142733478Y-100509529D01*
X142724319Y-100579100D01*
X131794661Y-100579100D01*
X131801923Y-99373600D01*
X134166035Y-99373600D01*
X134186232Y-99552855D01*
X134188528Y-99559419D01*
X134188530Y-99559424D01*
X134212181Y-99627014D01*
X134245811Y-99723122D01*
X134341784Y-99875862D01*
X134469338Y-100003416D01*
X134622078Y-100099389D01*
X134792345Y-100158968D01*
X134926646Y-100174100D01*
X135013070Y-100174100D01*
X135016554Y-100174100D01*
X135150855Y-100158968D01*
X135321122Y-100099389D01*
X135473862Y-100003416D01*
X135601416Y-99875862D01*
X135697389Y-99723122D01*
X135756968Y-99552855D01*
X135777165Y-99373600D01*
X135756968Y-99194345D01*
X135737503Y-99138717D01*
X160983883Y-99138717D01*
X161003562Y-99376218D01*
X161005246Y-99386312D01*
X161063753Y-99617347D01*
X161067072Y-99627014D01*
X161162807Y-99845271D01*
X161167672Y-99854261D01*
X161298025Y-100053780D01*
X161304306Y-100061851D01*
X161330949Y-100090792D01*
X161342406Y-100097944D01*
X161354151Y-100091270D01*
X162300280Y-99145142D01*
X162306944Y-99133600D01*
X162670255Y-99133600D01*
X162676919Y-99145142D01*
X163623046Y-100091269D01*
X163634793Y-100097943D01*
X163646249Y-100090792D01*
X163672894Y-100061850D01*
X163679173Y-100053782D01*
X163809527Y-99854261D01*
X163814392Y-99845271D01*
X163910127Y-99627014D01*
X163913446Y-99617347D01*
X163971953Y-99386312D01*
X163973637Y-99376218D01*
X163993317Y-99138717D01*
X166063883Y-99138717D01*
X166083562Y-99376218D01*
X166085246Y-99386312D01*
X166143753Y-99617347D01*
X166147072Y-99627014D01*
X166242807Y-99845271D01*
X166247672Y-99854261D01*
X166378025Y-100053780D01*
X166384306Y-100061851D01*
X166410949Y-100090792D01*
X166422406Y-100097944D01*
X166434151Y-100091270D01*
X167380280Y-99145142D01*
X167386944Y-99133600D01*
X167750255Y-99133600D01*
X167756919Y-99145142D01*
X168703046Y-100091269D01*
X168714793Y-100097943D01*
X168726249Y-100090792D01*
X168752894Y-100061850D01*
X168759173Y-100053782D01*
X168889527Y-99854261D01*
X168894392Y-99845271D01*
X168990127Y-99627014D01*
X168993446Y-99617347D01*
X169051953Y-99386312D01*
X169053637Y-99376218D01*
X169073317Y-99138717D01*
X169073317Y-99128483D01*
X169053637Y-98890981D01*
X169051953Y-98880887D01*
X168993446Y-98649852D01*
X168990127Y-98640185D01*
X168894392Y-98421928D01*
X168889527Y-98412938D01*
X168759174Y-98213419D01*
X168752893Y-98205348D01*
X168726250Y-98176408D01*
X168714792Y-98169255D01*
X168703046Y-98175929D01*
X167756919Y-99122057D01*
X167750255Y-99133600D01*
X167386944Y-99133600D01*
X167380280Y-99122057D01*
X166434151Y-98175928D01*
X166422407Y-98169255D01*
X166410948Y-98176408D01*
X166384307Y-98205347D01*
X166378024Y-98213420D01*
X166247672Y-98412938D01*
X166242807Y-98421928D01*
X166147072Y-98640185D01*
X166143753Y-98649852D01*
X166085246Y-98880887D01*
X166083562Y-98890981D01*
X166063883Y-99128483D01*
X166063883Y-99138717D01*
X163993317Y-99138717D01*
X163993317Y-99128483D01*
X163973637Y-98890981D01*
X163971953Y-98880887D01*
X163913446Y-98649852D01*
X163910127Y-98640185D01*
X163814392Y-98421928D01*
X163809527Y-98412938D01*
X163679174Y-98213419D01*
X163672893Y-98205348D01*
X163646250Y-98176408D01*
X163634792Y-98169255D01*
X163623046Y-98175929D01*
X162676919Y-99122057D01*
X162670255Y-99133600D01*
X162306944Y-99133600D01*
X162300280Y-99122057D01*
X161354151Y-98175928D01*
X161342407Y-98169255D01*
X161330948Y-98176408D01*
X161304307Y-98205347D01*
X161298024Y-98213420D01*
X161167672Y-98412938D01*
X161162807Y-98421928D01*
X161067072Y-98640185D01*
X161063753Y-98649852D01*
X161005246Y-98880887D01*
X161003562Y-98890981D01*
X160983883Y-99128483D01*
X160983883Y-99138717D01*
X135737503Y-99138717D01*
X135697389Y-99024078D01*
X135601416Y-98871338D01*
X135473862Y-98743784D01*
X135459847Y-98734978D01*
X135327012Y-98651512D01*
X135321122Y-98647811D01*
X135314559Y-98645514D01*
X135314556Y-98645513D01*
X135157425Y-98590531D01*
X135150855Y-98588232D01*
X135143933Y-98587452D01*
X135020018Y-98573490D01*
X135020012Y-98573489D01*
X135016554Y-98573100D01*
X134926646Y-98573100D01*
X134923188Y-98573489D01*
X134923181Y-98573490D01*
X134799266Y-98587452D01*
X134799264Y-98587452D01*
X134792345Y-98588232D01*
X134785776Y-98590530D01*
X134785774Y-98590531D01*
X134628643Y-98645513D01*
X134628636Y-98645515D01*
X134622078Y-98647811D01*
X134616190Y-98651510D01*
X134616187Y-98651512D01*
X134475238Y-98740076D01*
X134475233Y-98740079D01*
X134469338Y-98743784D01*
X134464413Y-98748708D01*
X134464409Y-98748712D01*
X134346712Y-98866409D01*
X134346708Y-98866413D01*
X134341784Y-98871338D01*
X134338079Y-98877233D01*
X134338076Y-98877238D01*
X134249512Y-99018187D01*
X134249510Y-99018190D01*
X134245811Y-99024078D01*
X134243515Y-99030636D01*
X134243513Y-99030643D01*
X134188530Y-99187775D01*
X134188528Y-99187782D01*
X134186232Y-99194345D01*
X134166035Y-99373600D01*
X131801923Y-99373600D01*
X131806800Y-98564100D01*
X141837150Y-98564100D01*
X141838211Y-98572159D01*
X141848439Y-98649852D01*
X141856070Y-98707809D01*
X141859181Y-98715320D01*
X141859182Y-98715323D01*
X141869435Y-98740076D01*
X141911539Y-98841725D01*
X141916484Y-98848169D01*
X141916485Y-98848171D01*
X141958549Y-98902989D01*
X141999779Y-98956721D01*
X142114775Y-99044961D01*
X142248691Y-99100430D01*
X142392400Y-99119350D01*
X142536109Y-99100430D01*
X142670025Y-99044961D01*
X142785021Y-98956721D01*
X142873261Y-98841725D01*
X142928730Y-98707809D01*
X142947650Y-98564100D01*
X142928730Y-98420391D01*
X142899076Y-98348800D01*
X144808950Y-98348800D01*
X144810011Y-98356859D01*
X144819436Y-98428453D01*
X144827870Y-98492509D01*
X144830981Y-98500020D01*
X144830982Y-98500023D01*
X144860862Y-98572159D01*
X144883339Y-98626425D01*
X144971579Y-98741421D01*
X145086575Y-98829661D01*
X145220491Y-98885130D01*
X145364200Y-98904050D01*
X145507909Y-98885130D01*
X145641825Y-98829661D01*
X145756821Y-98741421D01*
X145845061Y-98626425D01*
X145900530Y-98492509D01*
X145919450Y-98348800D01*
X145900530Y-98205091D01*
X145845061Y-98071175D01*
X145840116Y-98064730D01*
X145840114Y-98064727D01*
X145759351Y-97959476D01*
X145734324Y-97896143D01*
X145746515Y-97829145D01*
X145792247Y-97778688D01*
X145847061Y-97763034D01*
X145846800Y-97761050D01*
X145990509Y-97742130D01*
X146124425Y-97686661D01*
X146239421Y-97598421D01*
X146327661Y-97483425D01*
X146338316Y-97457700D01*
X148642250Y-97457700D01*
X148661170Y-97601409D01*
X148664281Y-97608920D01*
X148664282Y-97608923D01*
X148694433Y-97681714D01*
X148716639Y-97735325D01*
X148721584Y-97741769D01*
X148721585Y-97741771D01*
X148749913Y-97778688D01*
X148804879Y-97850321D01*
X148919875Y-97938561D01*
X149053791Y-97994030D01*
X149197500Y-98012950D01*
X149341209Y-97994030D01*
X149356440Y-97987721D01*
X161524944Y-97987721D01*
X161531603Y-97999826D01*
X162477057Y-98945280D01*
X162488600Y-98951944D01*
X162500142Y-98945280D01*
X163445595Y-97999826D01*
X163452254Y-97987721D01*
X166604944Y-97987721D01*
X166611603Y-97999826D01*
X167557057Y-98945280D01*
X167568600Y-98951944D01*
X167580142Y-98945280D01*
X168525595Y-97999826D01*
X168532255Y-97987720D01*
X168524148Y-97976530D01*
X168395884Y-97876698D01*
X168387322Y-97871104D01*
X168177714Y-97757670D01*
X168168360Y-97753567D01*
X167942943Y-97676182D01*
X167933031Y-97673671D01*
X167697956Y-97634444D01*
X167687761Y-97633600D01*
X167449439Y-97633600D01*
X167439243Y-97634444D01*
X167204168Y-97673671D01*
X167194256Y-97676182D01*
X166968839Y-97753567D01*
X166959485Y-97757670D01*
X166749879Y-97871103D01*
X166741317Y-97876696D01*
X166613051Y-97976530D01*
X166604944Y-97987721D01*
X163452254Y-97987721D01*
X163452255Y-97987720D01*
X163444148Y-97976530D01*
X163315884Y-97876698D01*
X163307322Y-97871104D01*
X163097714Y-97757670D01*
X163088360Y-97753567D01*
X162862943Y-97676182D01*
X162853031Y-97673671D01*
X162617956Y-97634444D01*
X162607761Y-97633600D01*
X162369439Y-97633600D01*
X162359243Y-97634444D01*
X162124168Y-97673671D01*
X162114256Y-97676182D01*
X161888839Y-97753567D01*
X161879485Y-97757670D01*
X161669879Y-97871103D01*
X161661317Y-97876696D01*
X161533051Y-97976530D01*
X161524944Y-97987721D01*
X149356440Y-97987721D01*
X149475125Y-97938561D01*
X149590121Y-97850321D01*
X149678361Y-97735325D01*
X149733830Y-97601409D01*
X149752750Y-97457700D01*
X149733830Y-97313991D01*
X149678361Y-97180075D01*
X149590121Y-97065079D01*
X149573367Y-97052223D01*
X149481571Y-96981785D01*
X149481569Y-96981784D01*
X149475125Y-96976839D01*
X149439092Y-96961914D01*
X149348723Y-96924482D01*
X149348720Y-96924481D01*
X149341209Y-96921370D01*
X149333149Y-96920308D01*
X149333146Y-96920308D01*
X149205559Y-96903511D01*
X149197500Y-96902450D01*
X149189441Y-96903511D01*
X149061853Y-96920308D01*
X149061848Y-96920309D01*
X149053791Y-96921370D01*
X149046281Y-96924480D01*
X149046276Y-96924482D01*
X148927385Y-96973728D01*
X148927383Y-96973729D01*
X148919875Y-96976839D01*
X148913433Y-96981782D01*
X148913428Y-96981785D01*
X148811321Y-97060135D01*
X148811317Y-97060138D01*
X148804879Y-97065079D01*
X148799938Y-97071517D01*
X148799935Y-97071521D01*
X148721585Y-97173628D01*
X148721582Y-97173633D01*
X148716639Y-97180075D01*
X148713529Y-97187583D01*
X148713528Y-97187585D01*
X148664282Y-97306476D01*
X148664280Y-97306481D01*
X148661170Y-97313991D01*
X148660109Y-97322048D01*
X148660108Y-97322053D01*
X148651825Y-97384971D01*
X148642250Y-97457700D01*
X146338316Y-97457700D01*
X146383130Y-97349509D01*
X146402050Y-97205800D01*
X146383130Y-97062091D01*
X146327661Y-96928175D01*
X146306809Y-96901000D01*
X153724350Y-96901000D01*
X153725411Y-96909059D01*
X153739847Y-97018714D01*
X153743270Y-97044709D01*
X153746381Y-97052220D01*
X153746382Y-97052223D01*
X153780577Y-97134778D01*
X153798739Y-97178625D01*
X153886979Y-97293621D01*
X154001975Y-97381861D01*
X154135891Y-97437330D01*
X154279600Y-97456250D01*
X154423309Y-97437330D01*
X154557225Y-97381861D01*
X154672221Y-97293621D01*
X154760461Y-97178625D01*
X154815930Y-97044709D01*
X154834850Y-96901000D01*
X154815930Y-96757291D01*
X154760461Y-96623375D01*
X154672221Y-96508379D01*
X154557225Y-96420139D01*
X154557590Y-96419662D01*
X154516729Y-96378802D01*
X154500115Y-96316800D01*
X154516729Y-96254798D01*
X154557590Y-96213937D01*
X154557225Y-96213461D01*
X154558777Y-96212270D01*
X154672221Y-96125221D01*
X154760461Y-96010225D01*
X154780768Y-95961200D01*
X165840150Y-95961200D01*
X165841211Y-95969259D01*
X165855828Y-96080290D01*
X165859070Y-96104909D01*
X165862181Y-96112420D01*
X165862182Y-96112423D01*
X165866251Y-96122246D01*
X165914539Y-96238825D01*
X165919484Y-96245269D01*
X165919485Y-96245271D01*
X165964197Y-96303540D01*
X166002779Y-96353821D01*
X166117775Y-96442061D01*
X166251691Y-96497530D01*
X166395400Y-96516450D01*
X166539109Y-96497530D01*
X166673025Y-96442061D01*
X166788021Y-96353821D01*
X166876261Y-96238825D01*
X166931730Y-96104909D01*
X166950650Y-95961200D01*
X166931730Y-95817491D01*
X166876261Y-95683575D01*
X166788021Y-95568579D01*
X166757962Y-95545514D01*
X166679471Y-95485285D01*
X166679469Y-95485284D01*
X166673025Y-95480339D01*
X166597867Y-95449208D01*
X166546623Y-95427982D01*
X166546620Y-95427981D01*
X166539109Y-95424870D01*
X166531049Y-95423808D01*
X166531046Y-95423808D01*
X166403459Y-95407011D01*
X166395400Y-95405950D01*
X166387341Y-95407011D01*
X166259753Y-95423808D01*
X166259748Y-95423809D01*
X166251691Y-95424870D01*
X166244181Y-95427980D01*
X166244176Y-95427982D01*
X166125285Y-95477228D01*
X166125283Y-95477229D01*
X166117775Y-95480339D01*
X166111333Y-95485282D01*
X166111328Y-95485285D01*
X166009221Y-95563635D01*
X166009217Y-95563638D01*
X166002779Y-95568579D01*
X165997838Y-95575017D01*
X165997835Y-95575021D01*
X165919485Y-95677128D01*
X165919482Y-95677133D01*
X165914539Y-95683575D01*
X165911429Y-95691083D01*
X165911428Y-95691085D01*
X165862182Y-95809976D01*
X165862180Y-95809981D01*
X165859070Y-95817491D01*
X165858009Y-95825548D01*
X165858008Y-95825553D01*
X165851326Y-95876309D01*
X165840150Y-95961200D01*
X154780768Y-95961200D01*
X154815930Y-95876309D01*
X154834850Y-95732600D01*
X154815930Y-95588891D01*
X154760461Y-95454975D01*
X154672221Y-95339979D01*
X154598563Y-95283459D01*
X154588060Y-95275400D01*
X161699950Y-95275400D01*
X161701011Y-95283459D01*
X161717137Y-95405950D01*
X161718870Y-95419109D01*
X161721981Y-95426620D01*
X161721982Y-95426623D01*
X161753464Y-95502628D01*
X161774339Y-95553025D01*
X161779284Y-95559469D01*
X161779285Y-95559471D01*
X161805764Y-95593979D01*
X161862579Y-95668021D01*
X161977575Y-95756261D01*
X162111491Y-95811730D01*
X162255200Y-95830650D01*
X162398909Y-95811730D01*
X162532825Y-95756261D01*
X162647821Y-95668021D01*
X162736061Y-95553025D01*
X162791530Y-95419109D01*
X162810450Y-95275400D01*
X162791530Y-95131691D01*
X162736061Y-94997775D01*
X162647821Y-94882779D01*
X162641378Y-94877835D01*
X162539271Y-94799485D01*
X162539269Y-94799484D01*
X162532825Y-94794539D01*
X162481066Y-94773100D01*
X162406423Y-94742182D01*
X162406420Y-94742181D01*
X162398909Y-94739070D01*
X162390849Y-94738008D01*
X162390846Y-94738008D01*
X162263259Y-94721211D01*
X162255200Y-94720150D01*
X162247141Y-94721211D01*
X162119553Y-94738008D01*
X162119548Y-94738009D01*
X162111491Y-94739070D01*
X162103981Y-94742180D01*
X162103976Y-94742182D01*
X161985085Y-94791428D01*
X161985083Y-94791429D01*
X161977575Y-94794539D01*
X161971133Y-94799482D01*
X161971128Y-94799485D01*
X161869021Y-94877835D01*
X161869017Y-94877838D01*
X161862579Y-94882779D01*
X161857638Y-94889217D01*
X161857635Y-94889221D01*
X161779285Y-94991328D01*
X161779282Y-94991333D01*
X161774339Y-94997775D01*
X161771229Y-95005283D01*
X161771228Y-95005285D01*
X161721982Y-95124176D01*
X161721980Y-95124181D01*
X161718870Y-95131691D01*
X161717809Y-95139748D01*
X161717808Y-95139753D01*
X161703684Y-95247038D01*
X161699950Y-95275400D01*
X154588060Y-95275400D01*
X154563671Y-95256685D01*
X154563669Y-95256684D01*
X154557225Y-95251739D01*
X154521192Y-95236814D01*
X154430823Y-95199382D01*
X154430820Y-95199381D01*
X154423309Y-95196270D01*
X154415249Y-95195208D01*
X154415246Y-95195208D01*
X154287659Y-95178411D01*
X154279600Y-95177350D01*
X154271541Y-95178411D01*
X154143953Y-95195208D01*
X154143948Y-95195209D01*
X154135891Y-95196270D01*
X154128381Y-95199380D01*
X154128376Y-95199382D01*
X154009485Y-95248628D01*
X154009483Y-95248629D01*
X154001975Y-95251739D01*
X153995533Y-95256682D01*
X153995528Y-95256685D01*
X153893421Y-95335035D01*
X153893417Y-95335038D01*
X153886979Y-95339979D01*
X153882038Y-95346417D01*
X153882035Y-95346421D01*
X153803685Y-95448528D01*
X153803682Y-95448533D01*
X153798739Y-95454975D01*
X153795629Y-95462483D01*
X153795628Y-95462485D01*
X153746382Y-95581376D01*
X153746380Y-95581381D01*
X153743270Y-95588891D01*
X153742209Y-95596948D01*
X153742208Y-95596953D01*
X153728309Y-95702528D01*
X153724350Y-95732600D01*
X153725411Y-95740659D01*
X153739931Y-95850953D01*
X153743270Y-95876309D01*
X153798739Y-96010225D01*
X153803684Y-96016669D01*
X153803685Y-96016671D01*
X153851600Y-96079114D01*
X153886979Y-96125221D01*
X153998356Y-96210684D01*
X154001975Y-96213461D01*
X154001609Y-96213937D01*
X154042471Y-96254800D01*
X154059084Y-96316800D01*
X154042471Y-96378800D01*
X154001609Y-96419662D01*
X154001975Y-96420139D01*
X153998356Y-96422915D01*
X153998353Y-96422918D01*
X153995533Y-96425082D01*
X153995528Y-96425085D01*
X153893421Y-96503435D01*
X153893417Y-96503438D01*
X153886979Y-96508379D01*
X153882038Y-96514817D01*
X153882035Y-96514821D01*
X153803685Y-96616928D01*
X153803682Y-96616933D01*
X153798739Y-96623375D01*
X153795629Y-96630883D01*
X153795628Y-96630885D01*
X153746382Y-96749776D01*
X153746380Y-96749781D01*
X153743270Y-96757291D01*
X153742209Y-96765348D01*
X153742208Y-96765353D01*
X153726556Y-96884246D01*
X153724350Y-96901000D01*
X146306809Y-96901000D01*
X146239421Y-96813179D01*
X146156793Y-96749776D01*
X146130871Y-96729885D01*
X146130869Y-96729884D01*
X146124425Y-96724939D01*
X146052845Y-96695290D01*
X145998023Y-96672582D01*
X145998020Y-96672581D01*
X145990509Y-96669470D01*
X145982449Y-96668408D01*
X145982446Y-96668408D01*
X145854859Y-96651611D01*
X145846800Y-96650550D01*
X145841762Y-96651213D01*
X145784161Y-96636584D01*
X145739334Y-96595146D01*
X145719711Y-96537340D01*
X145730049Y-96477176D01*
X145767842Y-96429235D01*
X145779696Y-96420139D01*
X145833021Y-96379221D01*
X145921261Y-96264225D01*
X145937923Y-96223999D01*
X146900549Y-96223999D01*
X146901610Y-96232058D01*
X146917924Y-96355979D01*
X146919469Y-96367708D01*
X146922580Y-96375219D01*
X146922581Y-96375222D01*
X146951555Y-96445171D01*
X146974938Y-96501624D01*
X146979883Y-96508068D01*
X146979884Y-96508070D01*
X147016521Y-96555816D01*
X147063178Y-96616620D01*
X147178174Y-96704860D01*
X147312090Y-96760329D01*
X147455799Y-96779249D01*
X147599508Y-96760329D01*
X147733424Y-96704860D01*
X147848420Y-96616620D01*
X147936660Y-96501624D01*
X147992129Y-96367708D01*
X148011049Y-96223999D01*
X147992129Y-96080290D01*
X147936660Y-95946374D01*
X147848420Y-95831378D01*
X147824197Y-95812791D01*
X147739870Y-95748084D01*
X147739868Y-95748083D01*
X147733424Y-95743138D01*
X147650946Y-95708975D01*
X147607022Y-95690781D01*
X147607019Y-95690780D01*
X147599508Y-95687669D01*
X147591448Y-95686607D01*
X147591445Y-95686607D01*
X147463858Y-95669810D01*
X147455799Y-95668749D01*
X147447740Y-95669810D01*
X147320152Y-95686607D01*
X147320147Y-95686608D01*
X147312090Y-95687669D01*
X147304580Y-95690779D01*
X147304575Y-95690781D01*
X147185684Y-95740027D01*
X147185682Y-95740028D01*
X147178174Y-95743138D01*
X147171732Y-95748081D01*
X147171727Y-95748084D01*
X147069620Y-95826434D01*
X147069616Y-95826437D01*
X147063178Y-95831378D01*
X147058237Y-95837816D01*
X147058234Y-95837820D01*
X146979884Y-95939927D01*
X146979881Y-95939932D01*
X146974938Y-95946374D01*
X146971828Y-95953882D01*
X146971827Y-95953884D01*
X146922581Y-96072775D01*
X146922579Y-96072780D01*
X146919469Y-96080290D01*
X146918408Y-96088347D01*
X146918407Y-96088352D01*
X146911894Y-96137823D01*
X146900549Y-96223999D01*
X145937923Y-96223999D01*
X145976730Y-96130309D01*
X145995650Y-95986600D01*
X145976730Y-95842891D01*
X145921261Y-95708975D01*
X145833021Y-95593979D01*
X145718025Y-95505739D01*
X145656703Y-95480339D01*
X145591623Y-95453382D01*
X145591620Y-95453381D01*
X145584109Y-95450270D01*
X145576049Y-95449208D01*
X145576046Y-95449208D01*
X145448459Y-95432411D01*
X145440400Y-95431350D01*
X145432341Y-95432411D01*
X145304753Y-95449208D01*
X145304748Y-95449209D01*
X145296691Y-95450270D01*
X145289181Y-95453380D01*
X145289176Y-95453382D01*
X145170285Y-95502628D01*
X145170283Y-95502629D01*
X145162775Y-95505739D01*
X145156333Y-95510682D01*
X145156328Y-95510685D01*
X145054221Y-95589035D01*
X145054217Y-95589038D01*
X145047779Y-95593979D01*
X145042838Y-95600417D01*
X145042835Y-95600421D01*
X144964485Y-95702528D01*
X144964482Y-95702533D01*
X144959539Y-95708975D01*
X144956429Y-95716483D01*
X144956428Y-95716485D01*
X144907182Y-95835376D01*
X144907180Y-95835381D01*
X144904070Y-95842891D01*
X144903009Y-95850948D01*
X144903008Y-95850953D01*
X144899670Y-95876309D01*
X144885150Y-95986600D01*
X144886211Y-95994659D01*
X144902551Y-96118778D01*
X144904070Y-96130309D01*
X144907181Y-96137820D01*
X144907182Y-96137823D01*
X144936462Y-96208511D01*
X144959539Y-96264225D01*
X144964484Y-96270669D01*
X144964485Y-96270671D01*
X145038945Y-96367708D01*
X145047779Y-96379221D01*
X145162775Y-96467461D01*
X145296691Y-96522930D01*
X145440400Y-96541850D01*
X145445437Y-96541186D01*
X145503039Y-96555816D01*
X145547866Y-96597254D01*
X145567489Y-96655060D01*
X145557151Y-96715224D01*
X145519358Y-96763165D01*
X145460621Y-96808235D01*
X145460617Y-96808238D01*
X145454179Y-96813179D01*
X145449238Y-96819617D01*
X145449235Y-96819621D01*
X145370885Y-96921728D01*
X145370882Y-96921733D01*
X145365939Y-96928175D01*
X145362829Y-96935683D01*
X145362828Y-96935685D01*
X145313582Y-97054576D01*
X145313580Y-97054581D01*
X145310470Y-97062091D01*
X145309409Y-97070148D01*
X145309408Y-97070153D01*
X145295758Y-97173834D01*
X145291550Y-97205800D01*
X145292611Y-97213859D01*
X145304458Y-97303850D01*
X145310470Y-97349509D01*
X145313581Y-97357020D01*
X145313582Y-97357023D01*
X145345557Y-97434217D01*
X145365939Y-97483425D01*
X145370882Y-97489866D01*
X145370885Y-97489872D01*
X145451649Y-97595124D01*
X145476676Y-97658457D01*
X145464485Y-97725455D01*
X145418753Y-97775912D01*
X145363938Y-97791565D01*
X145364200Y-97793550D01*
X145228553Y-97811408D01*
X145228548Y-97811409D01*
X145220491Y-97812470D01*
X145212981Y-97815580D01*
X145212976Y-97815582D01*
X145094085Y-97864828D01*
X145094083Y-97864829D01*
X145086575Y-97867939D01*
X145080133Y-97872882D01*
X145080128Y-97872885D01*
X144978021Y-97951235D01*
X144978017Y-97951238D01*
X144971579Y-97956179D01*
X144966638Y-97962617D01*
X144966635Y-97962621D01*
X144888285Y-98064728D01*
X144888282Y-98064733D01*
X144883339Y-98071175D01*
X144880229Y-98078683D01*
X144880228Y-98078685D01*
X144830982Y-98197576D01*
X144830980Y-98197581D01*
X144827870Y-98205091D01*
X144826809Y-98213148D01*
X144826808Y-98213153D01*
X144810011Y-98340741D01*
X144808950Y-98348800D01*
X142899076Y-98348800D01*
X142873261Y-98286475D01*
X142785021Y-98171479D01*
X142670025Y-98083239D01*
X142625332Y-98064727D01*
X142543623Y-98030882D01*
X142543620Y-98030881D01*
X142536109Y-98027770D01*
X142528049Y-98026708D01*
X142528046Y-98026708D01*
X142400459Y-98009911D01*
X142392400Y-98008850D01*
X142384341Y-98009911D01*
X142256753Y-98026708D01*
X142256748Y-98026709D01*
X142248691Y-98027770D01*
X142241181Y-98030880D01*
X142241176Y-98030882D01*
X142122285Y-98080128D01*
X142122283Y-98080129D01*
X142114775Y-98083239D01*
X142108333Y-98088182D01*
X142108328Y-98088185D01*
X142006221Y-98166535D01*
X142006217Y-98166538D01*
X141999779Y-98171479D01*
X141994838Y-98177917D01*
X141994835Y-98177921D01*
X141916485Y-98280028D01*
X141916482Y-98280033D01*
X141911539Y-98286475D01*
X141908429Y-98293983D01*
X141908428Y-98293985D01*
X141859182Y-98412876D01*
X141859180Y-98412881D01*
X141856070Y-98420391D01*
X141855009Y-98428448D01*
X141855008Y-98428453D01*
X141847637Y-98484446D01*
X141837150Y-98564100D01*
X131806800Y-98564100D01*
X131821735Y-96084843D01*
X132971100Y-96084843D01*
X132972151Y-96090469D01*
X132972152Y-96090472D01*
X133005512Y-96268930D01*
X133011982Y-96303540D01*
X133014052Y-96308885D01*
X133014053Y-96308886D01*
X133085810Y-96494113D01*
X133092353Y-96511001D01*
X133095371Y-96515875D01*
X133179414Y-96651611D01*
X133209476Y-96700162D01*
X133213336Y-96704396D01*
X133355497Y-96860340D01*
X133355501Y-96860344D01*
X133359364Y-96864581D01*
X133363937Y-96868034D01*
X133363941Y-96868038D01*
X133514567Y-96981785D01*
X133536911Y-96998658D01*
X133736072Y-97097829D01*
X133950064Y-97158715D01*
X134116097Y-97174100D01*
X135824231Y-97174100D01*
X135827103Y-97174100D01*
X135993136Y-97158715D01*
X136207128Y-97097829D01*
X136406289Y-96998658D01*
X136583836Y-96864581D01*
X136689567Y-96748600D01*
X139043150Y-96748600D01*
X139044211Y-96756659D01*
X139058874Y-96868038D01*
X139062070Y-96892309D01*
X139065181Y-96899820D01*
X139065182Y-96899823D01*
X139095794Y-96973728D01*
X139117539Y-97026225D01*
X139122484Y-97032669D01*
X139122485Y-97032671D01*
X139143559Y-97060135D01*
X139205779Y-97141221D01*
X139320775Y-97229461D01*
X139454691Y-97284930D01*
X139598400Y-97303850D01*
X139742109Y-97284930D01*
X139876025Y-97229461D01*
X139991021Y-97141221D01*
X140079261Y-97026225D01*
X140134730Y-96892309D01*
X140153650Y-96748600D01*
X140134730Y-96604891D01*
X140079261Y-96470975D01*
X139991021Y-96355979D01*
X139979812Y-96347378D01*
X139882471Y-96272685D01*
X139882469Y-96272684D01*
X139876025Y-96267739D01*
X139821782Y-96245271D01*
X139749623Y-96215382D01*
X139749620Y-96215381D01*
X139742109Y-96212270D01*
X139734049Y-96211208D01*
X139734046Y-96211208D01*
X139606459Y-96194411D01*
X139598400Y-96193350D01*
X139590341Y-96194411D01*
X139462753Y-96211208D01*
X139462748Y-96211209D01*
X139454691Y-96212270D01*
X139447181Y-96215380D01*
X139447176Y-96215382D01*
X139328285Y-96264628D01*
X139328283Y-96264629D01*
X139320775Y-96267739D01*
X139314333Y-96272682D01*
X139314328Y-96272685D01*
X139212221Y-96351035D01*
X139212217Y-96351038D01*
X139205779Y-96355979D01*
X139200838Y-96362417D01*
X139200835Y-96362421D01*
X139122485Y-96464528D01*
X139122482Y-96464533D01*
X139117539Y-96470975D01*
X139114429Y-96478483D01*
X139114428Y-96478485D01*
X139065182Y-96597376D01*
X139065180Y-96597381D01*
X139062070Y-96604891D01*
X139061009Y-96612948D01*
X139061008Y-96612953D01*
X139048499Y-96707970D01*
X139043150Y-96748600D01*
X136689567Y-96748600D01*
X136733724Y-96700162D01*
X136850847Y-96511001D01*
X136931218Y-96303540D01*
X136972100Y-96084843D01*
X136972100Y-95862357D01*
X136931218Y-95643660D01*
X136850847Y-95436199D01*
X136733724Y-95247038D01*
X136635921Y-95139753D01*
X136587702Y-95086859D01*
X136587697Y-95086855D01*
X136583836Y-95082619D01*
X136579263Y-95079166D01*
X136579258Y-95079161D01*
X136410861Y-94951994D01*
X136410856Y-94951991D01*
X136406289Y-94948542D01*
X136401163Y-94945989D01*
X136401159Y-94945987D01*
X136212258Y-94851925D01*
X136212253Y-94851923D01*
X136207128Y-94849371D01*
X136201621Y-94847804D01*
X136201613Y-94847801D01*
X136025858Y-94797795D01*
X135993136Y-94788485D01*
X135987428Y-94787956D01*
X135829963Y-94773365D01*
X135829962Y-94773364D01*
X135827103Y-94773100D01*
X134116097Y-94773100D01*
X134113238Y-94773364D01*
X134113236Y-94773365D01*
X133955771Y-94787956D01*
X133955769Y-94787956D01*
X133950064Y-94788485D01*
X133944550Y-94790053D01*
X133944549Y-94790054D01*
X133741586Y-94847801D01*
X133741575Y-94847805D01*
X133736072Y-94849371D01*
X133730949Y-94851921D01*
X133730941Y-94851925D01*
X133542040Y-94945987D01*
X133542031Y-94945992D01*
X133536911Y-94948542D01*
X133532348Y-94951987D01*
X133532338Y-94951994D01*
X133363941Y-95079161D01*
X133363930Y-95079170D01*
X133359364Y-95082619D01*
X133355507Y-95086849D01*
X133355497Y-95086859D01*
X133213336Y-95242803D01*
X133213332Y-95242807D01*
X133209476Y-95247038D01*
X133206464Y-95251901D01*
X133206459Y-95251909D01*
X133095371Y-95431324D01*
X133092353Y-95436199D01*
X133090285Y-95441536D01*
X133090283Y-95441541D01*
X133014053Y-95638313D01*
X133011982Y-95643660D01*
X133010928Y-95649294D01*
X133010928Y-95649297D01*
X132973232Y-95850953D01*
X132971100Y-95862357D01*
X132971100Y-96084843D01*
X131821735Y-96084843D01*
X131837016Y-93548200D01*
X139347950Y-93548200D01*
X139366870Y-93691909D01*
X139422339Y-93825825D01*
X139510579Y-93940821D01*
X139625575Y-94029061D01*
X139759491Y-94084530D01*
X139903200Y-94103450D01*
X140046909Y-94084530D01*
X140180825Y-94029061D01*
X140295821Y-93940821D01*
X140384061Y-93825825D01*
X140439530Y-93691909D01*
X140458450Y-93548200D01*
X140439530Y-93404491D01*
X140384061Y-93270575D01*
X140295821Y-93155579D01*
X140180825Y-93067339D01*
X140144792Y-93052414D01*
X140054423Y-93014982D01*
X140054420Y-93014981D01*
X140046909Y-93011870D01*
X140038849Y-93010808D01*
X140038846Y-93010808D01*
X139911259Y-92994011D01*
X139903200Y-92992950D01*
X139895141Y-92994011D01*
X139767553Y-93010808D01*
X139767548Y-93010809D01*
X139759491Y-93011870D01*
X139751981Y-93014980D01*
X139751976Y-93014982D01*
X139633085Y-93064228D01*
X139633083Y-93064229D01*
X139625575Y-93067339D01*
X139619133Y-93072282D01*
X139619128Y-93072285D01*
X139517021Y-93150635D01*
X139517017Y-93150638D01*
X139510579Y-93155579D01*
X139505638Y-93162017D01*
X139505635Y-93162021D01*
X139427285Y-93264128D01*
X139427282Y-93264133D01*
X139422339Y-93270575D01*
X139419229Y-93278083D01*
X139419228Y-93278085D01*
X139369982Y-93396976D01*
X139369980Y-93396981D01*
X139366870Y-93404491D01*
X139365809Y-93412548D01*
X139365808Y-93412553D01*
X139349011Y-93540141D01*
X139347950Y-93548200D01*
X131837016Y-93548200D01*
X131839278Y-93172663D01*
X131844891Y-93136523D01*
X131886861Y-93001842D01*
X131890672Y-92991316D01*
X131948932Y-92850666D01*
X131950382Y-92847313D01*
X132015561Y-92702493D01*
X132020081Y-92693459D01*
X132094315Y-92559144D01*
X132096649Y-92555107D01*
X132178236Y-92420148D01*
X132183168Y-92412627D01*
X132272336Y-92286957D01*
X132275806Y-92282305D01*
X132372653Y-92158690D01*
X132377768Y-92152578D01*
X132480648Y-92037456D01*
X132485359Y-92032474D01*
X132596274Y-91921559D01*
X132601256Y-91916848D01*
X132716378Y-91813968D01*
X132722490Y-91808853D01*
X132846105Y-91712006D01*
X132850757Y-91708536D01*
X132976427Y-91619368D01*
X132983948Y-91614436D01*
X133118907Y-91532849D01*
X133122944Y-91530515D01*
X133257259Y-91456281D01*
X133266293Y-91451761D01*
X133411113Y-91386582D01*
X133414466Y-91385132D01*
X133555121Y-91326870D01*
X133565631Y-91323065D01*
X133719728Y-91275045D01*
X133722031Y-91274355D01*
X133865971Y-91232885D01*
X133877919Y-91230075D01*
X134042593Y-91199895D01*
X134044026Y-91199642D01*
X134185691Y-91175570D01*
X134198940Y-91174048D01*
X134397368Y-91162043D01*
X134419588Y-91160794D01*
X134426538Y-91160600D01*
X150260660Y-91160600D01*
X150325450Y-91178873D01*
G37*
%TD.AperFunction*%
%TD*%
M02*
