%TF.GenerationSoftware,KiCad,Pcbnew,(7.0.0)*%
%TF.CreationDate,2023-06-22T14:20:14+03:00*%
%TF.ProjectId,Longle,4c6f6e67-6c65-42e6-9b69-6361645f7063,1.0*%
%TF.SameCoordinates,Original*%
%TF.FileFunction,Paste,Bot*%
%TF.FilePolarity,Positive*%
%FSLAX46Y46*%
G04 Gerber Fmt 4.6, Leading zero omitted, Abs format (unit mm)*
G04 Created by KiCad (PCBNEW (7.0.0)) date 2023-06-22 14:20:14*
%MOMM*%
%LPD*%
G01*
G04 APERTURE LIST*
G04 Aperture macros list*
%AMRoundRect*
0 Rectangle with rounded corners*
0 $1 Rounding radius*
0 $2 $3 $4 $5 $6 $7 $8 $9 X,Y pos of 4 corners*
0 Add a 4 corners polygon primitive as box body*
4,1,4,$2,$3,$4,$5,$6,$7,$8,$9,$2,$3,0*
0 Add four circle primitives for the rounded corners*
1,1,$1+$1,$2,$3*
1,1,$1+$1,$4,$5*
1,1,$1+$1,$6,$7*
1,1,$1+$1,$8,$9*
0 Add four rect primitives between the rounded corners*
20,1,$1+$1,$2,$3,$4,$5,0*
20,1,$1+$1,$4,$5,$6,$7,0*
20,1,$1+$1,$6,$7,$8,$9,0*
20,1,$1+$1,$8,$9,$2,$3,0*%
G04 Aperture macros list end*
%ADD10RoundRect,0.100000X0.637500X0.100000X-0.637500X0.100000X-0.637500X-0.100000X0.637500X-0.100000X0*%
%ADD11RoundRect,0.140000X0.170000X-0.140000X0.170000X0.140000X-0.170000X0.140000X-0.170000X-0.140000X0*%
%ADD12RoundRect,0.232500X0.232500X0.232500X-0.232500X0.232500X-0.232500X-0.232500X0.232500X-0.232500X0*%
%ADD13RoundRect,0.062500X0.375000X0.062500X-0.375000X0.062500X-0.375000X-0.062500X0.375000X-0.062500X0*%
%ADD14RoundRect,0.062500X0.062500X0.375000X-0.062500X0.375000X-0.062500X-0.375000X0.062500X-0.375000X0*%
%ADD15RoundRect,0.140000X0.140000X0.170000X-0.140000X0.170000X-0.140000X-0.170000X0.140000X-0.170000X0*%
%ADD16RoundRect,0.135000X0.135000X0.185000X-0.135000X0.185000X-0.135000X-0.185000X0.135000X-0.185000X0*%
%ADD17RoundRect,0.160000X0.160000X-0.245000X0.160000X0.245000X-0.160000X0.245000X-0.160000X-0.245000X0*%
%ADD18RoundRect,0.093750X0.106250X-0.093750X0.106250X0.093750X-0.106250X0.093750X-0.106250X-0.093750X0*%
%ADD19RoundRect,0.140000X-0.170000X0.140000X-0.170000X-0.140000X0.170000X-0.140000X0.170000X0.140000X0*%
%ADD20RoundRect,0.140000X-0.140000X-0.170000X0.140000X-0.170000X0.140000X0.170000X-0.140000X0.170000X0*%
%ADD21RoundRect,0.147500X-0.172500X0.147500X-0.172500X-0.147500X0.172500X-0.147500X0.172500X0.147500X0*%
%ADD22RoundRect,0.147500X-0.147500X-0.172500X0.147500X-0.172500X0.147500X0.172500X-0.147500X0.172500X0*%
%ADD23R,0.375000X0.500000*%
%ADD24R,0.300000X0.650000*%
G04 APERTURE END LIST*
D10*
%TO.C,U203*%
X156251400Y-92379600D03*
X156251400Y-93029600D03*
X156251400Y-93679600D03*
X156251400Y-94329600D03*
X150526400Y-94329600D03*
X150526400Y-93679600D03*
X150526400Y-93029600D03*
X150526400Y-92379600D03*
%TD*%
D11*
%TO.C,C203*%
X152298400Y-99923600D03*
X152298400Y-98963600D03*
%TD*%
D12*
%TO.C,U202*%
X148525600Y-102823600D03*
X148525600Y-101673600D03*
X148525600Y-100523600D03*
X147375600Y-102823600D03*
X147375600Y-101673600D03*
X147375600Y-100523600D03*
X146225600Y-102823600D03*
X146225600Y-101673600D03*
X146225600Y-100523600D03*
D13*
X149813100Y-99923600D03*
X149813100Y-100423600D03*
X149813100Y-100923600D03*
X149813100Y-101423600D03*
X149813100Y-101923600D03*
X149813100Y-102423600D03*
X149813100Y-102923600D03*
X149813100Y-103423600D03*
D14*
X149125600Y-104111100D03*
X148625600Y-104111100D03*
X148125600Y-104111100D03*
X147625600Y-104111100D03*
X147125600Y-104111100D03*
X146625600Y-104111100D03*
X146125600Y-104111100D03*
X145625600Y-104111100D03*
D13*
X144938100Y-103423600D03*
X144938100Y-102923600D03*
X144938100Y-102423600D03*
X144938100Y-101923600D03*
X144938100Y-101423600D03*
X144938100Y-100923600D03*
X144938100Y-100423600D03*
X144938100Y-99923600D03*
D14*
X145625600Y-99236100D03*
X146125600Y-99236100D03*
X146625600Y-99236100D03*
X147125600Y-99236100D03*
X147625600Y-99236100D03*
X148125600Y-99236100D03*
X148625600Y-99236100D03*
X149125600Y-99236100D03*
%TD*%
D15*
%TO.C,C104*%
X145922600Y-108435600D03*
X144962600Y-108435600D03*
%TD*%
D16*
%TO.C,R201*%
X141503400Y-107902102D03*
X140483400Y-107902102D03*
%TD*%
D17*
%TO.C,U101*%
X145029600Y-106529100D03*
X145829600Y-106529100D03*
D18*
X146079600Y-107416600D03*
X145429600Y-107416600D03*
X144779600Y-107416600D03*
X144779600Y-105641600D03*
X145429600Y-105641600D03*
X146079600Y-105641600D03*
%TD*%
D19*
%TO.C,C204*%
X151231600Y-101904800D03*
X151231600Y-102864800D03*
%TD*%
%TO.C,C205*%
X152303200Y-101910000D03*
X152303200Y-102870000D03*
%TD*%
D20*
%TO.C,C302*%
X155120400Y-96901000D03*
X156080400Y-96901000D03*
%TD*%
D21*
%TO.C,L201*%
X153314400Y-100454600D03*
X153314400Y-101424600D03*
%TD*%
D20*
%TO.C,C301*%
X155120400Y-95732600D03*
X156080400Y-95732600D03*
%TD*%
D22*
%TO.C,FB101*%
X140512800Y-106857800D03*
X141482800Y-106857800D03*
%TD*%
D15*
%TO.C,C206*%
X139086200Y-107902102D03*
X138126200Y-107902102D03*
%TD*%
D23*
%TO.C,U201*%
X143408399Y-95441399D03*
D24*
X143945899Y-95366399D03*
D23*
X144483399Y-95441399D03*
X144483399Y-97141399D03*
D24*
X143945899Y-97216399D03*
D23*
X143408399Y-97141399D03*
%TD*%
D15*
%TO.C,C101*%
X139085400Y-106832400D03*
X138125400Y-106832400D03*
%TD*%
D11*
%TO.C,C202*%
X151226000Y-99946400D03*
X151226000Y-98986400D03*
%TD*%
D19*
%TO.C,C103*%
X143537600Y-105923600D03*
X143537600Y-106883600D03*
%TD*%
D16*
%TO.C,R205*%
X153401400Y-95729600D03*
X152381400Y-95729600D03*
%TD*%
D19*
%TO.C,C201*%
X143510000Y-103454200D03*
X143510000Y-104414200D03*
%TD*%
D15*
%TO.C,C105*%
X145922600Y-109448600D03*
X144962600Y-109448600D03*
%TD*%
M02*
