%TF.GenerationSoftware,KiCad,Pcbnew,(7.0.0)*%
%TF.CreationDate,2023-06-22T14:20:15+03:00*%
%TF.ProjectId,Longle,4c6f6e67-6c65-42e6-9b69-6361645f7063,1.0*%
%TF.SameCoordinates,Original*%
%TF.FileFunction,Soldermask,Top*%
%TF.FilePolarity,Negative*%
%FSLAX46Y46*%
G04 Gerber Fmt 4.6, Leading zero omitted, Abs format (unit mm)*
G04 Created by KiCad (PCBNEW (7.0.0)) date 2023-06-22 14:20:15*
%MOMM*%
%LPD*%
G01*
G04 APERTURE LIST*
G04 Aperture macros list*
%AMRoundRect*
0 Rectangle with rounded corners*
0 $1 Rounding radius*
0 $2 $3 $4 $5 $6 $7 $8 $9 X,Y pos of 4 corners*
0 Add a 4 corners polygon primitive as box body*
4,1,4,$2,$3,$4,$5,$6,$7,$8,$9,$2,$3,0*
0 Add four circle primitives for the rounded corners*
1,1,$1+$1,$2,$3*
1,1,$1+$1,$4,$5*
1,1,$1+$1,$6,$7*
1,1,$1+$1,$8,$9*
0 Add four rect primitives between the rounded corners*
20,1,$1+$1,$2,$3,$4,$5,0*
20,1,$1+$1,$4,$5,$6,$7,0*
20,1,$1+$1,$6,$7,$8,$9,0*
20,1,$1+$1,$8,$9,$2,$3,0*%
G04 Aperture macros list end*
%ADD10RoundRect,0.147500X-0.147500X-0.172500X0.147500X-0.172500X0.147500X0.172500X-0.147500X0.172500X0*%
%ADD11RoundRect,0.140000X0.170000X-0.140000X0.170000X0.140000X-0.170000X0.140000X-0.170000X-0.140000X0*%
%ADD12RoundRect,0.200100X-0.949900X0.949900X-0.949900X-0.949900X0.949900X-0.949900X0.949900X0.949900X0*%
%ADD13C,2.500000*%
%ADD14C,1.100000*%
%ADD15R,2.500000X1.100000*%
%ADD16O,3.500000X1.900000*%
%ADD17R,0.900000X1.700000*%
%ADD18R,0.500000X0.375000*%
%ADD19R,0.650000X0.300000*%
%ADD20RoundRect,0.135000X0.185000X-0.135000X0.185000X0.135000X-0.185000X0.135000X-0.185000X-0.135000X0*%
%ADD21RoundRect,0.135000X-0.185000X0.135000X-0.185000X-0.135000X0.185000X-0.135000X0.185000X0.135000X0*%
%ADD22R,0.700000X0.700000*%
%ADD23R,1.500000X2.000000*%
%ADD24RoundRect,0.147500X0.147500X0.172500X-0.147500X0.172500X-0.147500X-0.172500X0.147500X-0.172500X0*%
G04 APERTURE END LIST*
D10*
%TO.C,D201*%
X140447400Y-104114600D03*
X141417400Y-104114600D03*
%TD*%
D11*
%TO.C,C102*%
X141757400Y-106654600D03*
X141757400Y-105694600D03*
%TD*%
D12*
%TO.C,AE301*%
X165028600Y-101673600D03*
D13*
X167568600Y-99133600D03*
X162488600Y-99133600D03*
X167568600Y-104213600D03*
X162488600Y-104213600D03*
%TD*%
D11*
%TO.C,C106*%
X166369400Y-95154600D03*
X166369400Y-94194600D03*
%TD*%
D14*
%TO.C,J101*%
X134971600Y-103973600D03*
X134971600Y-99373600D03*
D15*
X137721599Y-105173599D03*
X137721599Y-102673599D03*
X137721599Y-100673599D03*
X137721599Y-98173599D03*
D16*
X134971599Y-107373599D03*
X134971599Y-95973599D03*
%TD*%
D17*
%TO.C,SW201*%
X138231599Y-109194599D03*
X141631599Y-109194599D03*
%TD*%
D18*
%TO.C,U102*%
X140175599Y-101136099D03*
D19*
X140100599Y-101673599D03*
D18*
X140175599Y-102211099D03*
X141875599Y-102211099D03*
D19*
X141950599Y-101673599D03*
D18*
X141875599Y-101136099D03*
%TD*%
D20*
%TO.C,R203*%
X140517600Y-97768600D03*
X140517600Y-96748600D03*
%TD*%
D21*
%TO.C,R202*%
X141787600Y-96744600D03*
X141787600Y-97764600D03*
%TD*%
D20*
%TO.C,R204*%
X140487400Y-106656600D03*
X140487400Y-105636600D03*
%TD*%
D22*
%TO.C,D102*%
X165151399Y-109236599D03*
X165151399Y-108136599D03*
X163321399Y-108136599D03*
X163321399Y-109236599D03*
%TD*%
D17*
%TO.C,SW202*%
X141628599Y-94232599D03*
X138228599Y-94232599D03*
%TD*%
D22*
%TO.C,D101*%
X165151399Y-95266599D03*
X165151399Y-94166599D03*
X163321399Y-94166599D03*
X163321399Y-95266599D03*
%TD*%
D23*
%TO.C,U301*%
X158581599Y-93673599D03*
X156581599Y-93673599D03*
X154581599Y-93673599D03*
X152581599Y-93673599D03*
X150581599Y-93673599D03*
X148581599Y-93673599D03*
X146581599Y-93673599D03*
X144581599Y-93673599D03*
X144581599Y-109673599D03*
X146581599Y-109673599D03*
X148581599Y-109673599D03*
X150581599Y-109673599D03*
X152581599Y-109673599D03*
X154581599Y-109673599D03*
X156581599Y-109673599D03*
X158581599Y-109673599D03*
%TD*%
D24*
%TO.C,D202*%
X141510600Y-99288600D03*
X140540600Y-99288600D03*
%TD*%
D11*
%TO.C,C107*%
X166369400Y-109130600D03*
X166369400Y-108170600D03*
%TD*%
M02*
