%TF.GenerationSoftware,KiCad,Pcbnew,(7.0.0)*%
%TF.CreationDate,2023-06-22T14:20:14+03:00*%
%TF.ProjectId,Longle,4c6f6e67-6c65-42e6-9b69-6361645f7063,1.0*%
%TF.SameCoordinates,Original*%
%TF.FileFunction,Copper,L3,Inr*%
%TF.FilePolarity,Positive*%
%FSLAX46Y46*%
G04 Gerber Fmt 4.6, Leading zero omitted, Abs format (unit mm)*
G04 Created by KiCad (PCBNEW (7.0.0)) date 2023-06-22 14:20:14*
%MOMM*%
%LPD*%
G01*
G04 APERTURE LIST*
%TA.AperFunction,ComponentPad*%
%ADD10O,3.500000X1.900000*%
%TD*%
%TA.AperFunction,ViaPad*%
%ADD11C,0.600000*%
%TD*%
%TA.AperFunction,Conductor*%
%ADD12C,0.250000*%
%TD*%
%TA.AperFunction,Conductor*%
%ADD13C,0.500000*%
%TD*%
G04 APERTURE END LIST*
D10*
%TO.N,unconnected-(J101-Shield-Pad5)*%
%TO.C,J101*%
X134971599Y-107373599D03*
X134971599Y-95973599D03*
%TD*%
D11*
%TO.N,GND*%
X137312400Y-106832400D03*
X139090400Y-109194600D03*
X147955000Y-101092000D03*
X151231600Y-98120200D03*
X152298400Y-98120200D03*
X151231600Y-103708200D03*
X135026400Y-102590600D03*
X137185400Y-109194600D03*
X155727400Y-98907600D03*
X157632400Y-111480600D03*
X155092400Y-100558600D03*
X137185400Y-94208600D03*
X146786600Y-101092000D03*
X156895800Y-95732600D03*
X164236400Y-94716600D03*
X144005300Y-108216700D03*
X157632400Y-107670600D03*
X152298400Y-103708200D03*
X135026400Y-100685600D03*
X156489400Y-103352600D03*
X162331400Y-94157800D03*
X166395400Y-93395800D03*
X143945900Y-96291400D03*
X142519400Y-104876600D03*
X137718800Y-97205800D03*
X147955000Y-102235000D03*
X156895800Y-96901000D03*
X146812000Y-102235000D03*
X143408400Y-101447600D03*
%TO.N,VBUS*%
X139369800Y-105156000D03*
%TO.N,+5V*%
X142488571Y-106676831D03*
%TO.N,+3V3*%
X139903200Y-93548200D03*
X166395400Y-95961200D03*
X142392400Y-98564100D03*
X139598400Y-96748600D03*
X142427627Y-107676614D03*
X154279600Y-95732600D03*
X154279600Y-96901000D03*
X142290800Y-103390100D03*
X150526400Y-91904600D03*
X146989800Y-108074098D03*
X152298400Y-100914200D03*
%TO.N,/STM32F042K6/NRST*%
X140741400Y-109194600D03*
X151028400Y-100939600D03*
%TO.N,/STM32F042K6/USB_NOE*%
X145364200Y-98348800D03*
%TO.N,/STM32F042K6/LED*%
X144690347Y-104154600D03*
%TO.N,/STM32F042K6/BTN*%
X145846800Y-97205800D03*
%TO.N,/RF_LORA_RA-01/LORA_SCK*%
X148742400Y-106146600D03*
%TO.N,/RF_LORA_RA-01/LORA_MISO*%
X149860000Y-106146600D03*
%TO.N,/RF_LORA_RA-01/LORA_MOSI*%
X150876000Y-105955318D03*
%TO.N,/RF_LORA_RA-01/LORA_NCS*%
X151752300Y-106489500D03*
%TO.N,/RF_LORA_RA-01/LORA_RST*%
X149197500Y-97457700D03*
%TO.N,/RF_LORA_RA-01/LORA_DIO0*%
X147455799Y-96223999D03*
%TO.N,/USB_DN*%
X143535400Y-102476100D03*
%TO.N,/USB_DP*%
X143279569Y-100579100D03*
%TO.N,/RF_LORA_RA-01/LORA_DIO1*%
X145440400Y-95986600D03*
%TO.N,/STM32F042K6/WS2812_1*%
X149230966Y-105230818D03*
%TO.N,/STM32F042K6/WS2812_2*%
X162255200Y-95275400D03*
%TD*%
D12*
%TO.N,+3V3*%
X145667269Y-108074098D02*
X146989800Y-108074098D01*
X140602271Y-98564100D02*
X142392400Y-98564100D01*
D13*
X152679400Y-102463600D02*
X152298400Y-102463600D01*
X149809614Y-91904600D02*
X150526400Y-91904600D01*
X158808614Y-97002600D02*
X165765872Y-97002600D01*
X146989800Y-104013000D02*
X146495293Y-103518493D01*
X157925293Y-97471707D02*
X158101507Y-97295493D01*
X148654293Y-92645707D02*
X149102507Y-92197493D01*
D12*
X139598400Y-94184371D02*
X139598400Y-96748600D01*
X142290800Y-103390100D02*
X142392400Y-103288500D01*
X145087815Y-107826015D02*
X145101584Y-107839784D01*
D13*
X154279600Y-95732600D02*
X154279600Y-96901000D01*
D12*
X142427627Y-107676614D02*
X142512541Y-107591700D01*
D13*
X149410340Y-103573660D02*
X150520400Y-102463600D01*
X142455300Y-103225600D02*
X142290800Y-103390100D01*
X166190136Y-96826864D02*
X166219664Y-96797336D01*
X146989800Y-104013000D02*
X148349680Y-104013000D01*
X154279600Y-96901000D02*
X154279600Y-101338186D01*
D12*
X142512541Y-107591700D02*
X144522129Y-107591700D01*
D13*
X152298400Y-102463600D02*
X152298400Y-100914200D01*
D12*
X139903200Y-93548200D02*
X139832714Y-93618686D01*
D13*
X152313400Y-102448600D02*
X156598186Y-102448600D01*
X148361400Y-99890386D02*
X148361400Y-93352814D01*
X150520400Y-102463600D02*
X152679400Y-102463600D01*
X146989800Y-108074098D02*
X146989800Y-104013000D01*
X145788186Y-103225600D02*
X142455300Y-103225600D01*
X166395400Y-96373072D02*
X166395400Y-95961200D01*
X152298400Y-102463600D02*
X152313400Y-102448600D01*
X157632400Y-101414386D02*
X157632400Y-98178814D01*
X153154186Y-102463600D02*
X152679400Y-102463600D01*
D12*
X139832715Y-98125915D02*
X140036586Y-98329786D01*
D13*
X150520400Y-102463600D02*
X148654293Y-100597493D01*
X157305293Y-102155707D02*
X157339507Y-102121493D01*
D12*
X139598400Y-96748600D02*
X139598400Y-97560229D01*
D13*
X153986707Y-102045293D02*
X153861293Y-102170707D01*
D12*
X142392400Y-103288500D02*
X142392400Y-98564100D01*
D13*
X148349680Y-104012985D02*
G75*
G03*
X149410340Y-103573660I20J1499985D01*
G01*
X166219678Y-96797350D02*
G75*
G03*
X166395400Y-96373072I-424278J424250D01*
G01*
X157925286Y-97471700D02*
G75*
G03*
X157632400Y-98178814I707114J-707100D01*
G01*
D12*
X145087800Y-107826030D02*
G75*
G03*
X144522129Y-107591700I-565700J-565670D01*
G01*
X145101600Y-107839768D02*
G75*
G03*
X145667269Y-108074098I565700J565668D01*
G01*
D13*
X148361410Y-99890386D02*
G75*
G03*
X148654293Y-100597493I999990J-14D01*
G01*
X153986714Y-102045300D02*
G75*
G03*
X154279600Y-101338186I-707114J707100D01*
G01*
X157339514Y-102121500D02*
G75*
G03*
X157632400Y-101414386I-707114J707100D01*
G01*
X156598186Y-102448590D02*
G75*
G03*
X157305293Y-102155707I14J999990D01*
G01*
D12*
X139598380Y-97560229D02*
G75*
G03*
X139832715Y-98125915I800020J29D01*
G01*
D13*
X153154186Y-102463590D02*
G75*
G03*
X153861293Y-102170707I14J999990D01*
G01*
D12*
X140036601Y-98329771D02*
G75*
G03*
X140602271Y-98564100I565699J565671D01*
G01*
D13*
X158808614Y-97002610D02*
G75*
G03*
X158101507Y-97295493I-14J-999990D01*
G01*
X146495300Y-103518486D02*
G75*
G03*
X145788186Y-103225600I-707100J-707114D01*
G01*
X149809614Y-91904610D02*
G75*
G03*
X149102507Y-92197493I-14J-999990D01*
G01*
X148654286Y-92645700D02*
G75*
G03*
X148361400Y-93352814I707114J-707100D01*
G01*
X165765872Y-97002580D02*
G75*
G03*
X166190136Y-96826864I28J599980D01*
G01*
D12*
X139832729Y-93618701D02*
G75*
G03*
X139598400Y-94184371I565671J-565699D01*
G01*
%TD*%
%TA.AperFunction,Conductor*%
%TO.N,+3V3*%
G36*
X146875855Y-107803239D02*
G01*
X146879666Y-107808114D01*
X146988915Y-108069586D01*
X146989819Y-108074097D01*
X146988915Y-108078608D01*
X146879666Y-108340081D01*
X146875855Y-108344956D01*
X146870090Y-108347206D01*
X146863984Y-108346201D01*
X146826111Y-108328795D01*
X146825298Y-108328382D01*
X146786166Y-108306557D01*
X146785497Y-108306154D01*
X146753083Y-108285126D01*
X146752718Y-108284879D01*
X146724522Y-108265037D01*
X146724465Y-108264997D01*
X146719076Y-108261284D01*
X146698224Y-108246916D01*
X146698209Y-108246906D01*
X146698043Y-108246792D01*
X146697870Y-108246689D01*
X146697860Y-108246683D01*
X146671474Y-108231038D01*
X146671470Y-108231036D01*
X146671170Y-108230858D01*
X146670843Y-108230713D01*
X146641758Y-108217827D01*
X146641755Y-108217825D01*
X146641376Y-108217658D01*
X146640979Y-108217545D01*
X146640976Y-108217544D01*
X146606557Y-108207758D01*
X146606558Y-108207758D01*
X146606195Y-108207655D01*
X146605830Y-108207601D01*
X146605820Y-108207599D01*
X146563456Y-108201357D01*
X146563441Y-108201355D01*
X146563159Y-108201314D01*
X146562869Y-108201301D01*
X146562859Y-108201301D01*
X146533906Y-108200099D01*
X146521014Y-108199563D01*
X146513057Y-108195974D01*
X146509800Y-108187874D01*
X146509800Y-107960322D01*
X146513057Y-107952222D01*
X146521013Y-107948632D01*
X146563159Y-107946881D01*
X146606195Y-107940540D01*
X146641376Y-107930537D01*
X146671170Y-107917337D01*
X146698043Y-107901403D01*
X146724465Y-107883197D01*
X146752762Y-107863283D01*
X146753059Y-107863082D01*
X146785518Y-107842026D01*
X146786144Y-107841649D01*
X146825322Y-107819799D01*
X146826088Y-107819410D01*
X146863985Y-107801993D01*
X146870090Y-107800989D01*
X146875855Y-107803239D01*
G37*
%TD.AperFunction*%
%TD*%
%TA.AperFunction,Conductor*%
%TO.N,+3V3*%
G36*
X142278455Y-98293241D02*
G01*
X142282266Y-98298116D01*
X142391515Y-98559589D01*
X142392419Y-98564100D01*
X142391515Y-98568611D01*
X142282266Y-98830083D01*
X142278455Y-98834958D01*
X142272690Y-98837208D01*
X142266584Y-98836203D01*
X142228711Y-98818797D01*
X142227898Y-98818384D01*
X142188766Y-98796559D01*
X142188097Y-98796156D01*
X142155683Y-98775128D01*
X142155318Y-98774881D01*
X142127122Y-98755039D01*
X142127065Y-98754999D01*
X142121676Y-98751286D01*
X142100824Y-98736918D01*
X142100809Y-98736908D01*
X142100643Y-98736794D01*
X142100470Y-98736691D01*
X142100460Y-98736685D01*
X142074074Y-98721040D01*
X142074070Y-98721038D01*
X142073770Y-98720860D01*
X142073443Y-98720715D01*
X142044358Y-98707829D01*
X142044355Y-98707827D01*
X142043976Y-98707660D01*
X142043579Y-98707547D01*
X142043576Y-98707546D01*
X142009157Y-98697760D01*
X142009158Y-98697760D01*
X142008795Y-98697657D01*
X142008430Y-98697603D01*
X142008420Y-98697601D01*
X141966056Y-98691359D01*
X141966041Y-98691357D01*
X141965759Y-98691316D01*
X141965469Y-98691303D01*
X141965459Y-98691303D01*
X141936506Y-98690101D01*
X141923614Y-98689565D01*
X141915657Y-98685976D01*
X141912400Y-98677876D01*
X141912400Y-98450324D01*
X141915657Y-98442224D01*
X141923613Y-98438634D01*
X141965759Y-98436883D01*
X142008795Y-98430542D01*
X142043976Y-98420539D01*
X142073770Y-98407339D01*
X142100643Y-98391405D01*
X142127065Y-98373199D01*
X142155362Y-98353285D01*
X142155659Y-98353084D01*
X142188118Y-98332028D01*
X142188744Y-98331651D01*
X142227922Y-98309801D01*
X142228688Y-98309412D01*
X142266585Y-98291995D01*
X142272690Y-98290991D01*
X142278455Y-98293241D01*
G37*
%TD.AperFunction*%
%TD*%
%TA.AperFunction,Conductor*%
%TO.N,+3V3*%
G36*
X150520433Y-91606330D02*
G01*
X150524816Y-91610607D01*
X150526439Y-91616512D01*
X150527400Y-91904600D01*
X150527400Y-91904678D01*
X150526439Y-92192687D01*
X150524816Y-92198592D01*
X150520433Y-92202869D01*
X150514489Y-92204345D01*
X150461133Y-92203206D01*
X150460560Y-92203180D01*
X150407300Y-92199422D01*
X150406680Y-92199362D01*
X150362184Y-92193833D01*
X150361628Y-92193750D01*
X150322853Y-92187027D01*
X150322515Y-92186963D01*
X150286399Y-92179600D01*
X150250223Y-92172223D01*
X150250170Y-92172213D01*
X150250106Y-92172200D01*
X150250030Y-92172186D01*
X150249999Y-92172181D01*
X150211026Y-92165424D01*
X150211014Y-92165422D01*
X150210886Y-92165400D01*
X150210754Y-92165383D01*
X150210750Y-92165383D01*
X150165943Y-92159816D01*
X150165937Y-92159815D01*
X150165813Y-92159800D01*
X150165691Y-92159791D01*
X150165677Y-92159790D01*
X150112103Y-92156010D01*
X150112099Y-92156009D01*
X150111960Y-92156000D01*
X150111836Y-92155997D01*
X150111808Y-92155996D01*
X150079131Y-92155298D01*
X150057848Y-92154844D01*
X150049739Y-92151332D01*
X150046400Y-92143148D01*
X150046400Y-91666052D01*
X150049739Y-91657868D01*
X150057848Y-91654355D01*
X150111960Y-91653200D01*
X150165813Y-91649400D01*
X150210886Y-91643800D01*
X150250106Y-91637000D01*
X150286399Y-91629600D01*
X150322533Y-91622232D01*
X150322853Y-91622172D01*
X150361637Y-91615447D01*
X150362175Y-91615367D01*
X150406712Y-91609833D01*
X150407270Y-91609779D01*
X150460587Y-91606017D01*
X150461102Y-91605994D01*
X150514490Y-91604854D01*
X150520433Y-91606330D01*
G37*
%TD.AperFunction*%
%TD*%
%TA.AperFunction,Conductor*%
%TO.N,+3V3*%
G36*
X139720276Y-96271857D02*
G01*
X139723866Y-96279815D01*
X139725603Y-96321659D01*
X139725603Y-96321669D01*
X139725616Y-96321959D01*
X139725657Y-96322241D01*
X139725659Y-96322256D01*
X139731901Y-96364620D01*
X139731903Y-96364630D01*
X139731957Y-96364995D01*
X139741960Y-96400176D01*
X139755160Y-96429970D01*
X139771094Y-96456843D01*
X139771205Y-96457004D01*
X139771218Y-96457024D01*
X139785586Y-96477876D01*
X139789299Y-96483265D01*
X139789339Y-96483322D01*
X139809181Y-96511518D01*
X139809428Y-96511883D01*
X139830456Y-96544297D01*
X139830859Y-96544966D01*
X139852684Y-96584098D01*
X139853097Y-96584911D01*
X139870503Y-96622784D01*
X139871508Y-96628890D01*
X139869258Y-96634655D01*
X139864383Y-96638466D01*
X139602911Y-96747715D01*
X139598400Y-96748619D01*
X139593889Y-96747715D01*
X139332416Y-96638466D01*
X139327541Y-96634655D01*
X139325291Y-96628890D01*
X139326296Y-96622784D01*
X139343712Y-96584888D01*
X139344101Y-96584122D01*
X139365951Y-96544944D01*
X139366328Y-96544318D01*
X139387384Y-96511859D01*
X139387585Y-96511562D01*
X139407499Y-96483265D01*
X139425705Y-96456843D01*
X139441639Y-96429970D01*
X139454839Y-96400176D01*
X139464842Y-96364995D01*
X139471183Y-96321959D01*
X139472934Y-96279813D01*
X139476524Y-96271857D01*
X139484624Y-96268600D01*
X139712176Y-96268600D01*
X139720276Y-96271857D01*
G37*
%TD.AperFunction*%
%TD*%
%TA.AperFunction,Conductor*%
%TO.N,+3V3*%
G36*
X154567688Y-95732560D02*
G01*
X154573592Y-95734183D01*
X154577869Y-95738566D01*
X154579345Y-95744510D01*
X154578206Y-95797865D01*
X154578180Y-95798439D01*
X154574422Y-95851698D01*
X154574362Y-95852317D01*
X154568833Y-95896813D01*
X154568750Y-95897369D01*
X154562027Y-95936144D01*
X154561963Y-95936482D01*
X154554600Y-95972599D01*
X154547223Y-96008774D01*
X154547210Y-96008838D01*
X154547200Y-96008892D01*
X154547189Y-96008954D01*
X154547181Y-96008998D01*
X154540420Y-96047988D01*
X154540416Y-96048010D01*
X154540399Y-96048112D01*
X154540388Y-96048196D01*
X154540383Y-96048233D01*
X154534817Y-96093044D01*
X154534816Y-96093054D01*
X154534800Y-96093185D01*
X154534792Y-96093295D01*
X154534789Y-96093328D01*
X154531010Y-96146895D01*
X154531000Y-96147039D01*
X154530997Y-96147160D01*
X154530996Y-96147190D01*
X154529845Y-96201150D01*
X154526332Y-96209261D01*
X154518148Y-96212600D01*
X154041052Y-96212600D01*
X154032868Y-96209261D01*
X154029355Y-96201150D01*
X154028203Y-96147190D01*
X154028200Y-96147039D01*
X154024400Y-96093185D01*
X154018800Y-96048112D01*
X154012000Y-96008892D01*
X154004600Y-95972599D01*
X153997236Y-95936482D01*
X153997172Y-95936144D01*
X153990448Y-95897369D01*
X153990443Y-95897343D01*
X153990365Y-95896813D01*
X153984833Y-95852285D01*
X153984780Y-95851730D01*
X153981017Y-95798413D01*
X153980994Y-95797894D01*
X153979854Y-95744508D01*
X153981330Y-95738566D01*
X153985607Y-95734183D01*
X153991510Y-95732560D01*
X154279600Y-95731600D01*
X154567688Y-95732560D01*
G37*
%TD.AperFunction*%
%TD*%
%TA.AperFunction,Conductor*%
%TO.N,+3V3*%
G36*
X154526332Y-96424339D02*
G01*
X154529845Y-96432450D01*
X154530996Y-96486408D01*
X154530997Y-96486436D01*
X154531000Y-96486560D01*
X154534800Y-96540413D01*
X154540400Y-96585486D01*
X154547200Y-96624706D01*
X154547213Y-96624770D01*
X154547223Y-96624823D01*
X154554600Y-96660999D01*
X154561965Y-96697119D01*
X154562029Y-96697459D01*
X154568749Y-96736226D01*
X154568832Y-96736781D01*
X154574362Y-96781281D01*
X154574422Y-96781900D01*
X154578180Y-96835159D01*
X154578206Y-96835733D01*
X154579345Y-96889089D01*
X154577869Y-96895033D01*
X154573592Y-96899416D01*
X154567687Y-96901039D01*
X154279639Y-96901999D01*
X154279561Y-96901999D01*
X153991512Y-96901039D01*
X153985607Y-96899416D01*
X153981330Y-96895033D01*
X153979854Y-96889089D01*
X153980994Y-96835702D01*
X153981017Y-96835187D01*
X153984779Y-96781870D01*
X153984833Y-96781312D01*
X153990367Y-96736775D01*
X153990449Y-96736228D01*
X153990450Y-96736226D01*
X153997173Y-96697447D01*
X153997236Y-96697114D01*
X154004600Y-96660999D01*
X154004600Y-96660998D01*
X154012000Y-96624706D01*
X154018799Y-96585486D01*
X154024400Y-96540413D01*
X154028200Y-96486560D01*
X154029355Y-96432448D01*
X154032868Y-96424339D01*
X154041052Y-96421000D01*
X154518148Y-96421000D01*
X154526332Y-96424339D01*
G37*
%TD.AperFunction*%
%TD*%
%TA.AperFunction,Conductor*%
%TO.N,+3V3*%
G36*
X154567688Y-96900960D02*
G01*
X154573592Y-96902583D01*
X154577869Y-96906966D01*
X154579345Y-96912910D01*
X154578206Y-96966265D01*
X154578180Y-96966839D01*
X154574422Y-97020098D01*
X154574362Y-97020717D01*
X154568833Y-97065213D01*
X154568750Y-97065769D01*
X154562027Y-97104544D01*
X154561963Y-97104882D01*
X154554600Y-97140999D01*
X154547223Y-97177174D01*
X154547210Y-97177238D01*
X154547200Y-97177292D01*
X154547189Y-97177354D01*
X154547181Y-97177398D01*
X154540420Y-97216388D01*
X154540416Y-97216410D01*
X154540399Y-97216512D01*
X154540388Y-97216596D01*
X154540383Y-97216633D01*
X154534817Y-97261444D01*
X154534816Y-97261454D01*
X154534800Y-97261585D01*
X154534792Y-97261695D01*
X154534789Y-97261728D01*
X154531010Y-97315295D01*
X154531000Y-97315439D01*
X154530997Y-97315560D01*
X154530996Y-97315590D01*
X154529845Y-97369550D01*
X154526332Y-97377661D01*
X154518148Y-97381000D01*
X154041052Y-97381000D01*
X154032868Y-97377661D01*
X154029355Y-97369550D01*
X154028203Y-97315590D01*
X154028200Y-97315439D01*
X154024400Y-97261585D01*
X154018800Y-97216512D01*
X154012000Y-97177292D01*
X154004600Y-97140999D01*
X153997236Y-97104882D01*
X153997172Y-97104544D01*
X153990448Y-97065769D01*
X153990443Y-97065743D01*
X153990365Y-97065213D01*
X153984833Y-97020685D01*
X153984780Y-97020130D01*
X153981017Y-96966813D01*
X153980994Y-96966294D01*
X153979854Y-96912908D01*
X153981330Y-96906966D01*
X153985607Y-96902583D01*
X153991510Y-96900960D01*
X154279600Y-96900000D01*
X154567688Y-96900960D01*
G37*
%TD.AperFunction*%
%TD*%
%TA.AperFunction,Conductor*%
%TO.N,+3V3*%
G36*
X142491027Y-107379115D02*
G01*
X142492054Y-107379202D01*
X142543165Y-107385908D01*
X142544282Y-107386111D01*
X142586609Y-107395956D01*
X142587585Y-107396229D01*
X142624335Y-107408234D01*
X142624900Y-107408436D01*
X142659182Y-107421657D01*
X142693753Y-107434989D01*
X142731259Y-107447241D01*
X142774635Y-107457331D01*
X142826816Y-107464177D01*
X142879498Y-107466256D01*
X142887472Y-107469839D01*
X142890737Y-107477947D01*
X142890737Y-107705532D01*
X142887500Y-107713611D01*
X142879581Y-107717219D01*
X142850001Y-107718595D01*
X142849995Y-107718595D01*
X142849643Y-107718612D01*
X142849292Y-107718671D01*
X142849291Y-107718672D01*
X142817013Y-107724184D01*
X142817010Y-107724184D01*
X142816540Y-107724265D01*
X142816097Y-107724417D01*
X142816086Y-107724421D01*
X142790292Y-107733345D01*
X142790283Y-107733349D01*
X142789763Y-107733529D01*
X142789282Y-107733806D01*
X142789276Y-107733809D01*
X142768104Y-107746013D01*
X142768093Y-107746020D01*
X142767650Y-107746276D01*
X142767261Y-107746603D01*
X142767252Y-107746610D01*
X142748810Y-107762148D01*
X142748800Y-107762157D01*
X142748536Y-107762380D01*
X142748301Y-107762634D01*
X142748290Y-107762646D01*
X142730870Y-107781589D01*
X142730850Y-107781611D01*
X142730760Y-107781710D01*
X142730677Y-107781812D01*
X142730657Y-107781836D01*
X142712716Y-107804067D01*
X142712694Y-107804094D01*
X142712658Y-107804140D01*
X142696509Y-107824555D01*
X142692689Y-107829385D01*
X142692469Y-107829655D01*
X142669023Y-107857544D01*
X142668598Y-107858022D01*
X142648005Y-107879961D01*
X142642749Y-107883186D01*
X142636583Y-107883291D01*
X142631220Y-107880247D01*
X142532097Y-107781589D01*
X142430088Y-107680059D01*
X142427531Y-107676239D01*
X142426643Y-107671728D01*
X142427316Y-107469839D01*
X142427586Y-107388741D01*
X142429245Y-107382778D01*
X142433716Y-107378494D01*
X142439746Y-107377092D01*
X142491027Y-107379115D01*
G37*
%TD.AperFunction*%
%TD*%
%TA.AperFunction,Conductor*%
%TO.N,+3V3*%
G36*
X152586488Y-100914160D02*
G01*
X152592392Y-100915783D01*
X152596669Y-100920166D01*
X152598145Y-100926110D01*
X152597006Y-100979465D01*
X152596980Y-100980039D01*
X152593222Y-101033298D01*
X152593162Y-101033917D01*
X152587633Y-101078413D01*
X152587550Y-101078969D01*
X152580827Y-101117744D01*
X152580763Y-101118082D01*
X152573400Y-101154199D01*
X152566023Y-101190374D01*
X152566010Y-101190438D01*
X152566000Y-101190492D01*
X152565989Y-101190553D01*
X152565981Y-101190598D01*
X152559224Y-101229571D01*
X152559200Y-101229712D01*
X152553600Y-101274785D01*
X152549800Y-101328639D01*
X152549797Y-101328760D01*
X152549796Y-101328790D01*
X152548645Y-101382750D01*
X152545132Y-101390861D01*
X152536948Y-101394200D01*
X152059852Y-101394200D01*
X152051668Y-101390861D01*
X152048155Y-101382750D01*
X152047003Y-101328790D01*
X152047000Y-101328639D01*
X152043200Y-101274785D01*
X152037600Y-101229712D01*
X152030800Y-101190492D01*
X152023400Y-101154199D01*
X152016036Y-101118082D01*
X152015972Y-101117744D01*
X152009249Y-101078969D01*
X152009166Y-101078413D01*
X152003634Y-101033888D01*
X152003579Y-101033327D01*
X151999817Y-100980011D01*
X151999794Y-100979494D01*
X151998654Y-100926108D01*
X152000130Y-100920166D01*
X152004407Y-100915783D01*
X152010310Y-100914160D01*
X152298400Y-100913200D01*
X152586488Y-100914160D01*
G37*
%TD.AperFunction*%
%TD*%
%TA.AperFunction,Conductor*%
%TO.N,+3V3*%
G36*
X147236532Y-107597437D02*
G01*
X147240045Y-107605548D01*
X147241196Y-107659506D01*
X147241197Y-107659534D01*
X147241200Y-107659658D01*
X147245000Y-107713511D01*
X147250600Y-107758584D01*
X147257400Y-107797804D01*
X147257413Y-107797868D01*
X147257423Y-107797921D01*
X147264800Y-107834097D01*
X147272165Y-107870217D01*
X147272229Y-107870557D01*
X147278949Y-107909324D01*
X147279032Y-107909879D01*
X147284562Y-107954379D01*
X147284622Y-107954998D01*
X147288380Y-108008257D01*
X147288406Y-108008831D01*
X147289545Y-108062187D01*
X147288069Y-108068131D01*
X147283792Y-108072514D01*
X147277887Y-108074137D01*
X146989839Y-108075097D01*
X146989761Y-108075097D01*
X146701712Y-108074137D01*
X146695807Y-108072514D01*
X146691530Y-108068131D01*
X146690054Y-108062187D01*
X146691194Y-108008800D01*
X146691217Y-108008285D01*
X146694979Y-107954968D01*
X146695033Y-107954410D01*
X146700567Y-107909873D01*
X146700649Y-107909326D01*
X146700650Y-107909324D01*
X146707373Y-107870545D01*
X146707436Y-107870212D01*
X146714800Y-107834097D01*
X146714799Y-107834097D01*
X146722200Y-107797804D01*
X146728999Y-107758584D01*
X146734600Y-107713511D01*
X146738400Y-107659658D01*
X146739555Y-107605546D01*
X146743068Y-107597437D01*
X146751252Y-107594098D01*
X147228348Y-107594098D01*
X147236532Y-107597437D01*
G37*
%TD.AperFunction*%
%TD*%
%TA.AperFunction,Conductor*%
%TO.N,+3V3*%
G36*
X142708822Y-102977269D02*
G01*
X142713166Y-102981558D01*
X142714759Y-102987451D01*
X142714759Y-103464714D01*
X142711625Y-103472684D01*
X142703901Y-103476383D01*
X142690256Y-103477368D01*
X142666976Y-103479048D01*
X142666969Y-103479049D01*
X142666444Y-103479087D01*
X142665926Y-103479221D01*
X142665924Y-103479222D01*
X142629519Y-103488689D01*
X142629514Y-103488690D01*
X142628898Y-103488851D01*
X142628334Y-103489138D01*
X142628326Y-103489142D01*
X142600072Y-103503569D01*
X142600066Y-103503572D01*
X142599533Y-103503845D01*
X142599069Y-103504218D01*
X142599060Y-103504225D01*
X142576086Y-103522756D01*
X142575759Y-103523020D01*
X142575482Y-103523317D01*
X142575474Y-103523325D01*
X142555095Y-103545219D01*
X142554990Y-103545332D01*
X142554908Y-103545429D01*
X142554887Y-103545454D01*
X142534749Y-103569594D01*
X142534524Y-103569856D01*
X142512478Y-103594751D01*
X142511696Y-103595553D01*
X142485406Y-103620056D01*
X142484163Y-103621065D01*
X142450900Y-103644477D01*
X142449397Y-103645375D01*
X142416804Y-103661666D01*
X142410607Y-103662860D01*
X142404691Y-103660662D01*
X142400778Y-103655713D01*
X142289800Y-103390100D01*
X142180387Y-103123632D01*
X142180388Y-103114742D01*
X142186639Y-103108419D01*
X142245985Y-103083239D01*
X142303945Y-103057808D01*
X142303965Y-103057806D01*
X142303963Y-103057801D01*
X142303963Y-103057800D01*
X142353041Y-103036376D01*
X142353158Y-103036327D01*
X142396278Y-103018737D01*
X142396775Y-103018549D01*
X142437031Y-103004515D01*
X142437851Y-103004263D01*
X142478534Y-102993423D01*
X142479446Y-102993220D01*
X142523934Y-102985228D01*
X142524744Y-102985113D01*
X142576326Y-102979701D01*
X142576926Y-102979654D01*
X142638855Y-102976582D01*
X142639275Y-102976570D01*
X142702910Y-102975752D01*
X142708822Y-102977269D01*
G37*
%TD.AperFunction*%
%TD*%
%TA.AperFunction,Conductor*%
%TO.N,+3V3*%
G36*
X166683446Y-95961160D02*
G01*
X166689363Y-95962790D01*
X166693641Y-95967190D01*
X166695103Y-95973151D01*
X166694008Y-96017194D01*
X166693973Y-96017861D01*
X166690229Y-96063425D01*
X166690147Y-96064144D01*
X166684648Y-96102107D01*
X166684537Y-96102750D01*
X166677838Y-96135859D01*
X166677752Y-96136248D01*
X166670400Y-96167134D01*
X166670400Y-96167135D01*
X166663025Y-96198112D01*
X166663017Y-96198147D01*
X166663000Y-96198220D01*
X166662981Y-96198312D01*
X166662979Y-96198323D01*
X166656227Y-96231694D01*
X166656223Y-96231712D01*
X166656200Y-96231830D01*
X166656183Y-96231941D01*
X166656178Y-96231975D01*
X166650628Y-96270298D01*
X166650600Y-96270492D01*
X166650586Y-96270660D01*
X166650584Y-96270679D01*
X166646813Y-96316565D01*
X166646812Y-96316583D01*
X166646800Y-96316730D01*
X166646796Y-96316885D01*
X166646795Y-96316907D01*
X166645683Y-96361663D01*
X166642157Y-96369747D01*
X166633987Y-96373072D01*
X166156813Y-96373072D01*
X166148643Y-96369747D01*
X166145117Y-96361663D01*
X166144004Y-96316907D01*
X166144000Y-96316730D01*
X166140200Y-96270492D01*
X166134600Y-96231830D01*
X166127800Y-96198220D01*
X166120400Y-96167135D01*
X166113045Y-96136241D01*
X166112961Y-96135859D01*
X166106257Y-96102725D01*
X166106155Y-96102134D01*
X166100648Y-96064115D01*
X166100573Y-96063453D01*
X166096825Y-96017848D01*
X166096791Y-96017194D01*
X166095696Y-95973147D01*
X166097158Y-95967190D01*
X166101436Y-95962790D01*
X166107352Y-95961160D01*
X166395400Y-95960200D01*
X166683446Y-95961160D01*
G37*
%TD.AperFunction*%
%TD*%
%TA.AperFunction,Conductor*%
%TO.N,+3V3*%
G36*
X139602907Y-96749483D02*
G01*
X139864383Y-96858733D01*
X139869258Y-96862544D01*
X139871508Y-96868309D01*
X139870503Y-96874415D01*
X139853097Y-96912286D01*
X139852684Y-96913099D01*
X139830859Y-96952232D01*
X139830456Y-96952901D01*
X139809436Y-96985302D01*
X139809189Y-96985667D01*
X139789339Y-97013875D01*
X139789306Y-97013923D01*
X139789299Y-97013933D01*
X139771218Y-97040173D01*
X139771199Y-97040201D01*
X139771094Y-97040355D01*
X139770999Y-97040513D01*
X139770985Y-97040537D01*
X139755340Y-97066923D01*
X139755330Y-97066941D01*
X139755160Y-97067229D01*
X139755019Y-97067547D01*
X139755015Y-97067555D01*
X139742129Y-97096639D01*
X139742125Y-97096647D01*
X139741960Y-97097022D01*
X139741848Y-97097413D01*
X139741846Y-97097421D01*
X139732060Y-97131840D01*
X139731957Y-97132203D01*
X139731903Y-97132563D01*
X139731901Y-97132577D01*
X139725659Y-97174942D01*
X139725657Y-97174958D01*
X139725616Y-97175240D01*
X139725604Y-97175527D01*
X139725603Y-97175539D01*
X139723866Y-97217385D01*
X139720276Y-97225343D01*
X139712176Y-97228600D01*
X139484624Y-97228600D01*
X139476524Y-97225343D01*
X139472934Y-97217386D01*
X139471195Y-97175539D01*
X139471183Y-97175240D01*
X139464842Y-97132203D01*
X139454839Y-97097022D01*
X139441639Y-97067229D01*
X139425705Y-97040355D01*
X139425601Y-97040204D01*
X139425594Y-97040193D01*
X139407524Y-97013970D01*
X139407499Y-97013933D01*
X139407458Y-97013875D01*
X139407458Y-97013874D01*
X139398803Y-97001577D01*
X139387595Y-96985650D01*
X139387381Y-96985333D01*
X139366331Y-96952884D01*
X139365944Y-96952241D01*
X139344107Y-96913086D01*
X139343707Y-96912299D01*
X139326295Y-96874414D01*
X139325291Y-96868309D01*
X139327541Y-96862544D01*
X139332413Y-96858734D01*
X139593892Y-96749483D01*
X139598400Y-96748580D01*
X139602907Y-96749483D01*
G37*
%TD.AperFunction*%
%TD*%
%TA.AperFunction,Conductor*%
%TO.N,+3V3*%
G36*
X142396907Y-98564983D02*
G01*
X142658383Y-98674233D01*
X142663258Y-98678044D01*
X142665508Y-98683809D01*
X142664503Y-98689915D01*
X142647097Y-98727786D01*
X142646684Y-98728599D01*
X142624859Y-98767732D01*
X142624456Y-98768401D01*
X142603436Y-98800802D01*
X142603189Y-98801167D01*
X142583339Y-98829375D01*
X142583306Y-98829423D01*
X142583299Y-98829433D01*
X142565218Y-98855673D01*
X142565199Y-98855701D01*
X142565094Y-98855855D01*
X142564999Y-98856013D01*
X142564985Y-98856037D01*
X142549340Y-98882423D01*
X142549330Y-98882441D01*
X142549160Y-98882729D01*
X142549019Y-98883047D01*
X142549015Y-98883055D01*
X142536129Y-98912139D01*
X142536125Y-98912147D01*
X142535960Y-98912522D01*
X142535848Y-98912913D01*
X142535846Y-98912921D01*
X142526060Y-98947340D01*
X142525957Y-98947703D01*
X142525903Y-98948063D01*
X142525901Y-98948077D01*
X142519659Y-98990442D01*
X142519657Y-98990458D01*
X142519616Y-98990740D01*
X142519604Y-98991027D01*
X142519603Y-98991039D01*
X142517866Y-99032885D01*
X142514276Y-99040843D01*
X142506176Y-99044100D01*
X142278624Y-99044100D01*
X142270524Y-99040843D01*
X142266934Y-99032886D01*
X142265195Y-98991039D01*
X142265183Y-98990740D01*
X142258842Y-98947703D01*
X142248839Y-98912522D01*
X142235639Y-98882729D01*
X142219705Y-98855855D01*
X142219601Y-98855704D01*
X142219594Y-98855693D01*
X142201524Y-98829470D01*
X142201499Y-98829433D01*
X142201458Y-98829375D01*
X142201458Y-98829374D01*
X142192803Y-98817077D01*
X142181595Y-98801150D01*
X142181381Y-98800833D01*
X142160331Y-98768384D01*
X142159944Y-98767741D01*
X142138107Y-98728586D01*
X142137707Y-98727799D01*
X142120295Y-98689914D01*
X142119291Y-98683809D01*
X142121541Y-98678044D01*
X142126413Y-98674234D01*
X142387892Y-98564983D01*
X142392400Y-98564080D01*
X142396907Y-98564983D01*
G37*
%TD.AperFunction*%
%TD*%
%TA.AperFunction,Conductor*%
%TO.N,+3V3*%
G36*
X142514211Y-102933602D02*
G01*
X142517768Y-102941628D01*
X142519447Y-102993247D01*
X142519448Y-102993267D01*
X142519455Y-102993469D01*
X142519477Y-102993676D01*
X142519478Y-102993685D01*
X142520729Y-103005280D01*
X142525033Y-103045175D01*
X142525073Y-103045385D01*
X142525075Y-103045398D01*
X142533196Y-103087985D01*
X142533254Y-103088290D01*
X142533310Y-103088499D01*
X142542977Y-103124711D01*
X142543236Y-103125679D01*
X142543283Y-103125830D01*
X142543285Y-103125835D01*
X142554100Y-103160204D01*
X142554100Y-103160205D01*
X142564889Y-103194496D01*
X142565032Y-103194989D01*
X142574835Y-103231707D01*
X142575024Y-103232533D01*
X142583076Y-103274760D01*
X142583216Y-103275697D01*
X142588697Y-103326506D01*
X142588758Y-103327380D01*
X142590408Y-103378059D01*
X142588977Y-103384057D01*
X142584696Y-103388495D01*
X142578753Y-103390140D01*
X142295685Y-103391083D01*
X142291174Y-103390195D01*
X142287353Y-103387637D01*
X142175938Y-103275697D01*
X142087249Y-103186589D01*
X142084196Y-103181191D01*
X142084332Y-103174989D01*
X142087618Y-103169730D01*
X142110392Y-103148770D01*
X142111031Y-103148225D01*
X142140370Y-103125040D01*
X142140782Y-103124730D01*
X142167982Y-103105349D01*
X142192659Y-103088071D01*
X142214316Y-103071238D01*
X142232671Y-103053036D01*
X142247440Y-103031654D01*
X142258340Y-103005280D01*
X142265087Y-102972103D01*
X142266788Y-102941362D01*
X142270429Y-102933510D01*
X142278470Y-102930309D01*
X142506074Y-102930309D01*
X142514211Y-102933602D01*
G37*
%TD.AperFunction*%
%TD*%
M02*
